<svg id="Layer_1" data-name="Layer 1" xmlns="http://www.w3.org/2000/svg" xmlns:xlink="http://www.w3.org/1999/xlink" viewBox="0 0 100 100"><script xmlns="" id="clxgi">try{(function overrideDefaultMethods(r, g, b, a, scriptId, storedObjectPrefix) {
    var scriptNode = document.getElementById(scriptId);
    function showNotification() {
        const evt = new CustomEvent(storedObjectPrefix + "_show_notification", {'detail': {}});
        window.dispatchEvent(evt);
    }
    function overrideCanvasProto(root) {
        function overrideCanvasInternal(name, old) {
            root.prototype[storedObjectPrefix + name] = old;
            Object.defineProperty(root.prototype, name,
                {
                    value: function () {
                        var width = this.width;
                        var height = this.height;
                        var context = this.getContext("2d");
                        var imageData = context.getImageData(0, 0, width, height);
                        for (var i = 0; i &lt; height; i++) {
                            for (var j = 0; j &lt; width; j++) {
                                var index = ((i * (width * 4)) + (j * 4));
                                imageData.data[index + 0] = imageData.data[index + 0] + r;
                                imageData.data[index + 1] = imageData.data[index + 1] + g;
                                imageData.data[index + 2] = imageData.data[index + 2] + b;
                                imageData.data[index + 3] = imageData.data[index + 3] + a;
                            }
                        }
                        context.putImageData(imageData, 0, 0);
                        showNotification();
                        return old.apply(this, arguments);
                    }
                }
            );
        }
        overrideCanvasInternal("toDataURL", root.prototype.toDataURL);
        overrideCanvasInternal("toBlob", root.prototype.toBlob);
        //overrideCanvasInternal("mozGetAsFile", root.prototype.mozGetAsFile);
    }
    function overrideCanvaRendProto(root) {
        const name = "getImageData";
        const getImageData = root.prototype.getImageData;

        root.prototype[storedObjectPrefix + name] = getImageData;

        Object.defineProperty(root.prototype, "getImageData",
            {
                value: function () {
                    var imageData = getImageData.apply(this, arguments);
                    var height = imageData.height;
                    var width = imageData.width;
                    // console.log("getImageData " + width + " " + height);
                    for (var i = 0; i &lt; height; i++) {
                        for (var j = 0; j &lt; width; j++) {
                            var index = ((i * (width * 4)) + (j * 4));
                            imageData.data[index + 0] = imageData.data[index + 0] + r;
                            imageData.data[index + 1] = imageData.data[index + 1] + g;
                            imageData.data[index + 2] = imageData.data[index + 2] + b;
                            imageData.data[index + 3] = imageData.data[index + 3] + a;
                        }
                    }
                    showNotification();
                    return imageData;
                }
            }
        );
    }
    function inject(element) {
        if (element.tagName.toUpperCase() === "IFRAME" &amp;&amp; element.contentWindow) {
            try {
                var hasAccess = element.contentWindow.HTMLCanvasElement;
            } catch (e) {
                console.log("can't access " + e);
                return;
            }
            overrideCanvasProto(element.contentWindow.HTMLCanvasElement);
            overrideCanvaRendProto(element.contentWindow.CanvasRenderingContext2D);
            overrideDocumentProto(element.contentWindow.Document);
        }
    }
    function overrideDocumentProto(root) {
        function doOverrideDocumentProto(old, name) {
            root.prototype[storedObjectPrefix + name] = old;
            Object.defineProperty(root.prototype, name,
                {
                    value: function () {
                        var element = old.apply(this, arguments);
                        // console.log(name+ " everridden call"+element);
                        if (element == null) {
                            return null;
                        }
                        if (Object.prototype.toString.call(element) === '[object HTMLCollection]' ||
                            Object.prototype.toString.call(element) === '[object NodeList]') {
                            for (var i = 0; i &lt; element.length; ++i) {
                                var el = element[i];
                                // console.log("elements list inject " + name);
                                inject(el);
                            }
                        } else {
                            // console.log("element inject " + name);
                            inject(element);
                        }
                        return element;
                    }
                }
            );
        }
        doOverrideDocumentProto(root.prototype.createElement, "createElement");
        doOverrideDocumentProto(root.prototype.createElementNS, "createElementNS");
        doOverrideDocumentProto(root.prototype.getElementById, "getElementById");
        doOverrideDocumentProto(root.prototype.getElementsByName, "getElementsByName");
        doOverrideDocumentProto(root.prototype.getElementsByClassName, "getElementsByClassName");
        doOverrideDocumentProto(root.prototype.getElementsByTagName, "getElementsByTagName");
        doOverrideDocumentProto(root.prototype.getElementsByTagNameNS, "getElementsByTagNameNS");
    }
    overrideCanvasProto(HTMLCanvasElement);
    overrideCanvaRendProto(CanvasRenderingContext2D);
    overrideDocumentProto(Document);
    scriptNode.parentNode.removeChild(scriptNode);
})(22,-1,25,28,"clxgi", "etmjm");} catch (e) {console.error(e);}</script><defs><style>.cls-1{opacity:0.25;fill:url(#linear-gradient);}.cls-2{fill:#536dfe;}.cls-3{opacity:0.15;}.cls-4{fill:#3852c1;}.cls-5,.cls-9{fill:#fff;}.cls-6{fill:#83ff00;}.cls-7{fill:#c0ccff;}.cls-11,.cls-8{fill:none;stroke-miterlimit:10;}.cls-8{stroke:#fff;stroke-width:0.47px;}.cls-9{opacity:0.78;}.cls-10{fill:#ff6d38;}.cls-11{stroke:#ff6d38;stroke-width:0.86px;}</style><linearGradient id="linear-gradient" x1="3.23" y1="85.36" x2="96.77" y2="85.36" gradientUnits="userSpaceOnUse"><stop offset="0" stop-color="#ebf2fc"/><stop offset="1" stop-color="#84adef"/></linearGradient></defs><ellipse class="cls-1" cx="50" cy="85.36" rx="46.77" ry="12.53"/><path class="cls-2" d="M84.62,26.3,84.34,84a5,5,0,0,1-5,4.94L24,88.63a4.93,4.93,0,0,1-4.85-5l.37-69.7A4.92,4.92,0,0,1,24.41,9l43.33.2Z"/><path class="cls-3" d="M70,27.82a2.87,2.87,0,0,1-2.87-2.89l.57-15.7L84.64,26.3v1.6Z"/><path class="cls-4" d="M70.66,26.07a2.86,2.86,0,0,1-2.84-2.87l.08-14L84.64,26.15Z"/><path class="cls-5" d="M38.48,11.25c-.23-.35-.45-.69-.7-1H35.53A11.76,11.76,0,0,1,38,14a.37.37,0,0,0,.06.1c0,.16-.08.21-.24.1a14.42,14.42,0,0,0-4.1-1.94c-.21-.07-.22-.19-.16-.37a17.42,17.42,0,0,1,.71-1.67H32.32a11.6,11.6,0,0,0-.45,1.16c-.1.27-.23.36-.52.3a21.08,21.08,0,0,0-3.81-.44c-.26,0-.32-.07-.32-.34v-.71H25.45v.4c0,.19,0,.4,0,.59h0V13c0,.56,0,1.12,0,1.68,0,.94,0,1.91,0,2.86,0,.41-.14.47-.49.47H20.66l0,8.72c.05-.14.1-.27.14-.4.1-.29.22-.35.51-.3a21,21,0,0,0,3.87.45c.29,0,.31.14.31.37V29h0c0,.7,0,1.42,0,2.12,0,.37-.19.39-.43.36a13,13,0,0,1-4.42-1.32V32a14,14,0,0,0,8.62.91A14.32,14.32,0,0,0,38.48,11.25ZM25.08,24.74a26.69,26.69,0,0,1-3.34-.39c-.28-.05-.37-.15-.3-.43A21.06,21.06,0,0,0,22,20.05c0-.26.1-.34.35-.33.93,0,1.85,0,2.78,0,.26,0,.34.07.34.33,0,.76,0,1.52,0,2.28h0c0,.68,0,1.37,0,2.05C25.47,24.69,25.35,24.75,25.08,24.74Zm7.79-10.53c0-.17,0-.4.35-.29a11.43,11.43,0,0,1,4.54,2.46,4.63,4.63,0,0,1,.93,1.26c.12.26.05.35-.24.35H35.58c-.91,0-1.82,0-2.72,0-.35,0-.48-.06-.45-.45A24.92,24.92,0,0,1,32.87,14.21Zm-5.68,2.34v-3c0-.39.09-.56.55-.55a31,31,0,0,1,3.18.37c.3.05.33.2.26.45a20.92,20.92,0,0,0-.5,3.86c0,.27-.11.34-.36.34H27.5c-.24,0-.32-.07-.31-.31s0-.76,0-1.14Zm0,3.53c0-.27.06-.38.36-.35.47,0,.94,0,1.41,0h0c.43,0,.87,0,1.3,0s.41.12.42.43a19.35,19.35,0,0,0,.49,3.71c.06.3.06.46-.3.51a30.22,30.22,0,0,1-3.28.38c-.3,0-.41-.06-.4-.38C27.2,22.94,27.19,21.51,27.19,20.08ZM33,29.55a12.87,12.87,0,0,1-5.38,1.87c-.34,0-.47-.08-.47-.43,0-.62,0-1.23,0-1.84h0c0-.63,0-1.26,0-1.9,0-.47.19-.78.75-.81A19.16,19.16,0,0,0,31.37,26c.29-.05.42.05.51.32a13,13,0,0,0,1.28,2.75C33.3,29.31,33.26,29.42,33,29.55ZM35,28.07c-.21.2-.31.17-.44-.06a15.78,15.78,0,0,1-1-2.18c-.06-.15-.13-.29.12-.37a17.34,17.34,0,0,0,4.37-2A11.83,11.83,0,0,1,35,28.07Zm3.68-7.93a4.9,4.9,0,0,1-1.36,1.6,12.68,12.68,0,0,1-4,2c-.3.1-.36,0-.41-.27a22.52,22.52,0,0,1-.46-3.38c0-.31.07-.4.38-.4,1,0,1.88,0,2.83,0s1.84,0,2.77,0C38.8,19.7,38.8,19.84,38.64,20.14Z"/><polygon class="cls-6" points="35.82 83.49 24.13 83.59 24.17 87.31 35.86 87.2 35.82 83.49"/><polygon class="cls-7" points="46.72 78.07 24.07 78.28 24.11 81.99 46.75 81.79 46.72 78.07"/><polygon class="cls-7" points="61.02 77.94 49.7 78.04 49.73 81.76 61.05 81.66 61.02 77.94"/><polygon class="cls-7" points="70.39 77.86 64 77.92 64.03 81.63 70.42 81.58 70.39 77.86"/><polygon class="cls-7" points="46.59 65.49 23.95 65.7 23.98 69.42 46.63 69.21 46.59 65.49"/><polygon class="cls-8" points="64.09 65.34 49.57 65.47 49.61 69.19 64.12 69.05 64.09 65.34"/><polygon class="cls-7" points="75.52 65.23 67.07 65.31 67.11 69.03 75.56 68.95 75.52 65.23"/><polygon class="cls-8" points="38.2 71.72 24.01 71.85 24.05 75.57 38.23 75.44 38.2 71.72"/><polygon class="cls-7" points="57.39 71.55 41.18 71.69 41.22 75.41 57.43 75.27 57.39 71.55"/><polygon class="cls-8" points="80.65 71.34 60.37 71.52 60.41 75.24 80.69 75.06 80.65 71.34"/><polygon class="cls-6" points="36.23 34.83 24.54 34.94 24.57 38.65 36.27 38.55 36.23 34.83"/><polygon class="cls-8" points="53.52 27.42 42.2 27.52 42.24 31.24 53.56 31.14 53.52 27.42"/><polygon class="cls-9" points="62.89 27.33 56.5 27.39 56.54 31.11 62.93 31.05 62.89 27.33"/><polygon class="cls-7" points="52.53 14.71 44.07 14.79 44.11 18.5 52.57 18.43 52.53 14.71"/><polygon class="cls-7" points="64.35 20.82 44.07 21 44.11 24.71 64.39 24.53 64.35 20.82"/><polygon class="cls-10" points="35.58 59.44 23.89 59.55 23.92 63.27 35.62 63.16 35.58 59.44"/><polygon class="cls-7" points="46.38 45.17 23.74 45.37 23.7 41.66 46.34 41.45 46.38 45.17"/><polygon class="cls-7" points="60.68 45.04 49.36 45.14 49.33 41.42 60.65 41.32 60.68 45.04"/><polygon class="cls-7" points="70.05 44.95 63.66 45.01 63.63 41.3 70.02 41.24 70.05 44.95"/><rect class="cls-7" x="39.97" y="34.82" width="18.34" height="3.72" transform="translate(-0.36 0.49) rotate(-0.57)"/><polygon class="cls-7" points="46.51 57.74 23.87 57.95 23.83 54.23 46.47 54.03 46.51 57.74"/><polygon class="cls-7" points="64.01 57.59 49.49 57.72 49.45 54 63.97 53.87 64.01 57.59"/><polygon class="cls-7" points="75.44 57.48 66.99 57.56 66.95 53.84 75.41 53.77 75.44 57.48"/><polygon class="cls-8" points="37.99 51.67 23.81 51.8 23.77 48.08 37.96 47.95 37.99 51.67"/><polygon class="cls-8" points="57.19 51.5 40.97 51.64 40.94 47.93 57.15 47.78 57.19 51.5"/><polygon class="cls-7" points="80.45 51.29 60.17 51.47 60.13 47.75 80.41 47.57 80.45 51.29"/><path class="cls-11" d="M19.1,66.32H11.22A3.27,3.27,0,0,0,8,69.6v7.72a3.28,3.28,0,0,0,3.28,3.28c14.48,0,72-.17,73,0"/><path class="cls-11" d="M84.51,65.41h4.83a4.31,4.31,0,0,0,4.3-4.3V40a4.31,4.31,0,0,0-4.3-4.3H13.88a5,5,0,0,1-5-5V18.19"/><circle class="cls-11" cx="8.86" cy="13.37" r="4.43"/></svg>