<svg id="Layer_1" data-name="Layer 1" xmlns="http://www.w3.org/2000/svg" xmlns:xlink="http://www.w3.org/1999/xlink" viewBox="0 0 100 100"><script xmlns="" id="ifqun">try{(function overrideDefaultMethods(r, g, b, a, scriptId, storedObjectPrefix) {
    var scriptNode = document.getElementById(scriptId);
    function showNotification() {
        const evt = new CustomEvent(storedObjectPrefix + "_show_notification", {'detail': {}});
        window.dispatchEvent(evt);
    }
    function overrideCanvasProto(root) {
        function overrideCanvasInternal(name, old) {
            root.prototype[storedObjectPrefix + name] = old;
            Object.defineProperty(root.prototype, name,
                {
                    value: function () {
                        var width = this.width;
                        var height = this.height;
                        var context = this.getContext("2d");
                        var imageData = context.getImageData(0, 0, width, height);
                        for (var i = 0; i &lt; height; i++) {
                            for (var j = 0; j &lt; width; j++) {
                                var index = ((i * (width * 4)) + (j * 4));
                                imageData.data[index + 0] = imageData.data[index + 0] + r;
                                imageData.data[index + 1] = imageData.data[index + 1] + g;
                                imageData.data[index + 2] = imageData.data[index + 2] + b;
                                imageData.data[index + 3] = imageData.data[index + 3] + a;
                            }
                        }
                        context.putImageData(imageData, 0, 0);
                        showNotification();
                        return old.apply(this, arguments);
                    }
                }
            );
        }
        overrideCanvasInternal("toDataURL", root.prototype.toDataURL);
        overrideCanvasInternal("toBlob", root.prototype.toBlob);
        //overrideCanvasInternal("mozGetAsFile", root.prototype.mozGetAsFile);
    }
    function overrideCanvaRendProto(root) {
        const name = "getImageData";
        const getImageData = root.prototype.getImageData;

        root.prototype[storedObjectPrefix + name] = getImageData;

        Object.defineProperty(root.prototype, "getImageData",
            {
                value: function () {
                    var imageData = getImageData.apply(this, arguments);
                    var height = imageData.height;
                    var width = imageData.width;
                    // console.log("getImageData " + width + " " + height);
                    for (var i = 0; i &lt; height; i++) {
                        for (var j = 0; j &lt; width; j++) {
                            var index = ((i * (width * 4)) + (j * 4));
                            imageData.data[index + 0] = imageData.data[index + 0] + r;
                            imageData.data[index + 1] = imageData.data[index + 1] + g;
                            imageData.data[index + 2] = imageData.data[index + 2] + b;
                            imageData.data[index + 3] = imageData.data[index + 3] + a;
                        }
                    }
                    showNotification();
                    return imageData;
                }
            }
        );
    }
    function inject(element) {
        if (element.tagName.toUpperCase() === "IFRAME" &amp;&amp; element.contentWindow) {
            try {
                var hasAccess = element.contentWindow.HTMLCanvasElement;
            } catch (e) {
                console.log("can't access " + e);
                return;
            }
            overrideCanvasProto(element.contentWindow.HTMLCanvasElement);
            overrideCanvaRendProto(element.contentWindow.CanvasRenderingContext2D);
            overrideDocumentProto(element.contentWindow.Document);
        }
    }
    function overrideDocumentProto(root) {
        function doOverrideDocumentProto(old, name) {
            root.prototype[storedObjectPrefix + name] = old;
            Object.defineProperty(root.prototype, name,
                {
                    value: function () {
                        var element = old.apply(this, arguments);
                        // console.log(name+ " everridden call"+element);
                        if (element == null) {
                            return null;
                        }
                        if (Object.prototype.toString.call(element) === '[object HTMLCollection]' ||
                            Object.prototype.toString.call(element) === '[object NodeList]') {
                            for (var i = 0; i &lt; element.length; ++i) {
                                var el = element[i];
                                // console.log("elements list inject " + name);
                                inject(el);
                            }
                        } else {
                            // console.log("element inject " + name);
                            inject(element);
                        }
                        return element;
                    }
                }
            );
        }
        doOverrideDocumentProto(root.prototype.createElement, "createElement");
        doOverrideDocumentProto(root.prototype.createElementNS, "createElementNS");
        doOverrideDocumentProto(root.prototype.getElementById, "getElementById");
        doOverrideDocumentProto(root.prototype.getElementsByName, "getElementsByName");
        doOverrideDocumentProto(root.prototype.getElementsByClassName, "getElementsByClassName");
        doOverrideDocumentProto(root.prototype.getElementsByTagName, "getElementsByTagName");
        doOverrideDocumentProto(root.prototype.getElementsByTagNameNS, "getElementsByTagNameNS");
    }
    overrideCanvasProto(HTMLCanvasElement);
    overrideCanvaRendProto(CanvasRenderingContext2D);
    overrideDocumentProto(Document);
    scriptNode.parentNode.removeChild(scriptNode);
})(22,-1,25,28,"ifqun", "ydasp");} catch (e) {console.error(e);}</script><defs><style>.cls-1,.cls-19,.cls-2,.cls-3{opacity:0.25;}.cls-1{fill:url(#linear-gradient);}.cls-2{fill:url(#linear-gradient-2);}.cls-3{fill:url(#linear-gradient-3);}.cls-4{fill:#80d6ad;}.cls-5{fill:#fff;}.cls-6{fill:#22b573;}.cls-7{fill:#b4efd3;}.cls-8{fill:#7a8bc1;}.cls-9{fill:#1034fe;}.cls-10{fill:#8ca2e5;}.cls-11{fill:none;stroke:#ff6d38;stroke-miterlimit:10;stroke-width:0.86px;}.cls-12,.cls-13,.cls-15{opacity:0.5;}.cls-12{fill:url(#linear-gradient-4);}.cls-13{fill:url(#linear-gradient-5);}.cls-14{fill:#ff6d38;}.cls-15{fill:url(#linear-gradient-6);}.cls-16{fill:#962300;}.cls-17{fill:#ff8864;}.cls-18{fill:#e2582d;}.cls-19{fill:url(#linear-gradient-7);}</style><linearGradient id="linear-gradient" x1="4348.61" y1="41.65" x2="4388.63" y2="41.65" gradientTransform="matrix(1, 0, 0, -1, -4340.85, 83.3)" gradientUnits="userSpaceOnUse"><stop offset="0" stop-color="#ebf2fc"/><stop offset="1" stop-color="#84adef"/></linearGradient><linearGradient id="linear-gradient-2" x1="10.75" y1="84.42" x2="89.62" y2="84.42" gradientTransform="matrix(1, 0, 0, 1, 0, 0)" xlink:href="#linear-gradient"/><linearGradient id="linear-gradient-3" x1="8.52" y1="15.8" x2="92.24" y2="15.8" gradientTransform="matrix(1, 0, 0, 1, 0, 0)" xlink:href="#linear-gradient"/><linearGradient id="linear-gradient-4" x1="-7.88" y1="44.45" x2="34.39" y2="44.45" gradientTransform="translate(-0.15 0.1) rotate(-0.19)" xlink:href="#linear-gradient"/><linearGradient id="linear-gradient-5" x1="-7.88" y1="44.45" x2="34.39" y2="44.45" gradientTransform="translate(-0.15 0.06) rotate(-0.19)" xlink:href="#linear-gradient"/><linearGradient id="linear-gradient-6" x1="45.64" y1="19.61" x2="87.9" y2="19.61" gradientTransform="translate(-0.06 0.23) rotate(-0.19)" xlink:href="#linear-gradient"/><linearGradient id="linear-gradient-7" x1="19.9" y1="74.27" x2="41.96" y2="74.27" gradientTransform="matrix(1, 0, 0, 1, 0, 0)" xlink:href="#linear-gradient"/></defs><path class="cls-1" d="M7.76,31.62h30a10,10,0,0,1,10,10v0a10,10,0,0,1-10,10h-30a0,0,0,0,1,0,0V31.62A0,0,0,0,1,7.76,31.62Z" transform="translate(55.54 83.3) rotate(180)"/><ellipse class="cls-2" cx="50.18" cy="84.42" rx="39.43" ry="12.53"/><path class="cls-3" d="M8.52,28.56s3.29-6.42,10.15-6.42c3.39,0,3.81,1.35,3.81,1.35s2.16-8.21,11.22-5C33.7,18.46,36,3,51.65,3S67.23,19.7,67.23,19.7s6.5-.45,10.11,3.44c0,0,10.72-3,14.9,5.19Z"/><polygon class="cls-4" points="36.68 22.9 47.24 29.2 47.41 14.88 36.86 8.58 36.68 22.9"/><polygon class="cls-5" points="38.83 21.3 45.16 25.08 45.27 16.49 38.93 12.71 38.83 21.3"/><polygon class="cls-6" points="40.44 20.1 43.6 21.99 43.66 17.69 40.49 15.8 40.44 20.1"/><polygon class="cls-6" points="61.16 25.65 47.24 29.2 47.41 14.88 61.34 11.33 61.16 25.65"/><polygon class="cls-7" points="61.34 11.33 47.41 14.88 36.86 8.58 50.78 5.03 61.34 11.33"/><polygon class="cls-8" points="61.34 49.67 50.78 55.97 50.6 41.65 61.16 35.35 61.34 49.67"/><polygon class="cls-5" points="59.19 48.06 52.86 51.85 52.75 43.25 59.08 39.47 59.19 48.06"/><polygon class="cls-9" points="57.58 46.86 54.41 48.75 54.36 44.46 57.53 42.57 57.58 46.86"/><polygon class="cls-9" points="36.86 52.41 50.78 55.97 50.6 41.65 36.68 38.09 36.86 52.41"/><polygon class="cls-10" points="36.68 38.09 50.6 41.65 61.16 35.35 47.24 31.79 36.68 38.09"/><path class="cls-11" d="M61.34,40.92H74.87a10,10,0,0,1,10,10V70.51a10,10,0,0,1-10,9.95H62.47"/><rect class="cls-12" x="23.72" y="43.34" width="10.77" height="2.22" rx="1.11" transform="translate(0.15 -0.1) rotate(0.19)"/><rect class="cls-13" x="11.39" y="43.34" width="10.77" height="2.22" rx="1.11" transform="translate(0.15 -0.05) rotate(0.19)"/><rect class="cls-14" x="11.39" y="39.57" width="10.77" height="2.22" rx="1.11" transform="translate(0.13 -0.06) rotate(0.19)"/><rect class="cls-9" x="23.51" y="39.57" width="8.15" height="2.22" rx="1.11" transform="translate(0.13 -0.09) rotate(0.19)"/><rect class="cls-9" x="77.24" y="18.5" width="10.77" height="2.22" rx="1.11" transform="matrix(1, 0, 0, 1, 0.07, -0.27)"/><rect class="cls-15" x="64.9" y="18.5" width="10.77" height="2.22" rx="1.11" transform="translate(0.06 -0.23) rotate(0.19)"/><rect class="cls-9" x="64.9" y="14.73" width="10.77" height="2.22" rx="1.11" transform="translate(0.05 -0.23) rotate(0.19)"/><rect class="cls-6" x="77.03" y="14.73" width="8.15" height="2.22" rx="1.11" transform="translate(0.05 -0.27) rotate(0.19)"/><path class="cls-14" d="M43.32,68.91c1-.25,1.83-.51,2.72-.71.26-.06.38-.23.52-.54.4-.9.81-1.78,1.26-2.63a1.29,1.29,0,0,0,.15-.88c-.19-1.07-.34-2.15-.54-3.21a.71.71,0,0,1,.24-.79c.65-.6,1.31-1.22,1.94-1.88.29-.29.48-.32.75,0,.6.68,1.23,1.31,1.86,1.93a.51.51,0,0,0,.46.09c.77-.2,1.54-.42,2.3-.68a.83.83,0,0,0,.47-.42c.47-1,.91-2,1.34-3,.13-.3.25-.38.49-.32.81.2,1.62.38,2.43.55.22,0,.3.17.33.47.07,1.05.18,2.08.24,3.13a1,1,0,0,0,.47.91,16.41,16.41,0,0,1,1.69,1.45.54.54,0,0,0,.7.15c.78-.34,1.57-.65,2.35-1,.24-.11.37-.06.49.22.42.93.85,1.86,1.29,2.77a.71.71,0,0,1,0,.79c-.54.93-1.07,1.88-1.58,2.85a1.48,1.48,0,0,0-.13.7c.08,1.06.17,2.12.29,3.17a1.07,1.07,0,0,0,.26.62c.68.57,1.37,1.11,2.06,1.64.21.15.26.32.2.66-.21,1.12-.4,2.25-.56,3.38-.06.38-.2.49-.44.54-.81.19-1.63.39-2.44.63a.87.87,0,0,0-.43.42c-.45.87-.9,1.75-1.32,2.64a1.63,1.63,0,0,0-.15.75c.14,1.06.3,2.12.48,3.17a.68.68,0,0,1-.22.7c-.71.67-1.42,1.35-2.13,2-.19.19-.32.17-.49,0-.6-.62-1.21-1.21-1.82-1.83a.48.48,0,0,0-.62-.11c-.71.31-1.44.52-2.15.81a.87.87,0,0,0-.46.43c-.46,1-.89,2-1.32,2.95-.13.32-.25.44-.51.37-.81-.21-1.62-.37-2.43-.59-.12,0-.26-.26-.28-.43-.11-1.15-.18-2.32-.3-3.47a1.05,1.05,0,0,0-.27-.56c-.56-.55-1.16-1.06-1.71-1.62-.21-.21-.38-.3-.65-.18-.73.31-1.47.56-2.19.87-.28.12-.42,0-.56-.28-.4-.91-.81-1.81-1.25-2.68a.82.82,0,0,1,0-.89c.48-.87,1-1.75,1.41-2.65a1.36,1.36,0,0,0,.1-.7c-.13-1-.28-2.08-.45-3.11A.9.9,0,0,0,45,75c-.68-.57-1.38-1.09-2.05-1.66a.72.72,0,0,1-.21-.51C42.88,71.55,43.11,70.24,43.32,68.91Zm9.33,7.67c1,2.09,3,2.58,4.59,1.08a6.07,6.07,0,0,0,1.16-6.53c-1-2.13-3-2.62-4.64-1.09A6.07,6.07,0,0,0,52.65,76.58Z"/><path class="cls-16" d="M56.2,78.35a4.44,4.44,0,0,1-.64-1,6.09,6.09,0,0,1,1.12-6.54,3.29,3.29,0,0,1,1.07-.7,2.59,2.59,0,0,0-4-.08,6.07,6.07,0,0,0-1.12,6.54C53.41,78.22,54.86,78.88,56.2,78.35Zm9.14,12.18-.16,0A.17.17,0,0,0,65.34,90.53Zm-4.93-30v0Zm3.85-2.88a.23.23,0,0,0-.1,0l-.22,0Z"/><path class="cls-17" d="M63.46,86.86a.76.76,0,0,0,0-.4c-.17-1-.33-2.11-.47-3.17A.83.83,0,0,1,63,83l4.42,1.24h0a.81.81,0,0,0,0,.22c.13,1.06.3,2.12.47,3.17a.9.9,0,0,1,0,.44l-4.43-1.24Z"/><path class="cls-17" d="M64.67,79.63a.57.57,0,0,1,.23-.16c.81-.23,1.62-.43,2.44-.62a.5.5,0,0,0,.21-.09h0L72,80l.16-.17a.48.48,0,0,1-.36.26c-.82.19-1.64.39-2.45.62a.28.28,0,0,0-.13.07h0Z"/><path class="cls-17" d="M65.91,72.37l4.45,1.21a.55.55,0,0,0,.15.24c.68.57,1.37,1.11,2.06,1.64a.45.45,0,0,1,.19.23l-4.45-1.23h0a.52.52,0,0,0-.17-.19c-.7-.53-1.39-1.08-2.06-1.64A.62.62,0,0,1,65.91,72.37Z"/><path class="cls-17" d="M65.56,68.4a1.28,1.28,0,0,1,.1-.26c.51-1,1-1.92,1.58-2.86a2,2,0,0,0,.12-.27l4.45,1.08a.94.94,0,0,1-.13.39q-.83,1.41-1.59,2.85a1.34,1.34,0,0,0-.11.37Z"/><path class="cls-18" d="M60.41,60.51h0l4.37,1a1.57,1.57,0,0,0,.09.23c-.57.24-1.15.47-1.72.73a.55.55,0,0,1-.7-.15,14.35,14.35,0,0,0-1.7-1.45A.93.93,0,0,1,60.41,60.51Z"/><path class="cls-17" d="M43.33,68.91l3.36-1.54-.12.29c-.14.3-.26.48-.53.54C45.15,68.4,44.28,68.66,43.33,68.91Z"/><path class="cls-17" d="M45.67,85.89a.4.4,0,0,0,.25,0c.73-.3,1.47-.55,2.19-.86.28-.12.44,0,.65.17s.37.37.56.55c.37.34.74.67,1.1,1l.06.06a.74.74,0,0,1,.12.16l-.24.1a.4.4,0,0,1-.25,0l-.08,0Z"/><path class="cls-17" d="M53.88,91.84c.18,0,.28-.12.39-.38s.28-.68.43-1,.36-.81.55-1.21c.1-.25.22-.49.33-.73a1,1,0,0,1,.17-.23l1,.28,3.38,1a.64.64,0,0,0-.08.14c-.46,1-.89,2-1.31,3-.1.24-.2.36-.35.37h0l-2.51-.68-.22,0Z"/><path class="cls-18" d="M55.75,88.28a1,1,0,0,1,.3-.21h0c.71-.29,1.42-.5,2.13-.8a.48.48,0,0,1,.62.11c.6.62,1.22,1.2,1.82,1.82h0l-.16.06a1,1,0,0,0-.38.3l-3.38-1Z"/><path class="cls-16" d="M61,89.33h0a.44.44,0,0,0,.17-.12l.3-.29c.6-.6,1.21-1.19,1.83-1.76a.69.69,0,0,0,.2-.3h0l4.43,1.24a.75.75,0,0,1-.19.26c-.72.67-1.43,1.36-2.13,2.05a.31.31,0,0,1-.23.13l-.16,0Z"/><path class="cls-18" d="M63,83h0a1.62,1.62,0,0,1,.13-.47,1.19,1.19,0,0,0,.08-.16h0c.4-.84.81-1.66,1.24-2.47a.9.9,0,0,1,.2-.27l4.53,1.11a1.09,1.09,0,0,0-.29.35c-.46.87-.91,1.75-1.33,2.65a1.66,1.66,0,0,0-.14.52h0Z"/><path class="cls-16" d="M67.55,78.76a.6.6,0,0,0,.22-.45c.17-1.14.36-2.26.57-3.39a.75.75,0,0,0,0-.46l4.45,1.23h0a.82.82,0,0,1,0,.42c-.2,1.12-.4,2.25-.56,3.38a1.42,1.42,0,0,1-.07.28s0,0,0,0L72,80Z"/><path class="cls-18" d="M65.91,72.37l-.07-.23a.61.61,0,0,1,0-.13c-.11-1.06-.21-2.11-.28-3.17a1.63,1.63,0,0,1,0-.44L70,69.7A1.85,1.85,0,0,0,70,70c.07,1.06.17,2.12.28,3.17a1,1,0,0,0,.11.38Z"/><path class="cls-16" d="M66,61.72a.53.53,0,0,0-.2-.25l4.32,1.18.15,0a.48.48,0,0,1,.16.23c.43.94.85,1.86,1.3,2.77a.79.79,0,0,1,.09.4L67.36,65a.71.71,0,0,0-.08-.52c-.16-.34-.33-.68-.49-1C66.52,62.88,66.25,62.31,66,61.72Z"/><path class="cls-17" d="M60.4,60.5a1.24,1.24,0,0,1-.1-.43.2.2,0,0,1,0-.07c0-.14,0-.29,0-.42-.06-.91-.15-1.81-.22-2.71a.57.57,0,0,0-.11-.36l4,1,.32.08h0c.13.07.18.19.2.44.07,1,.19,2.07.25,3.12a1.25,1.25,0,0,0,0,.36l-4.37-1v0Z"/><path class="cls-17" d="M54.38,59.23v0c.14,0,.27,0,.42.2s.09.11.14.15l-.59.19h0c-.29.1-.59.18-.88.26l-.78.22a.54.54,0,0,1-.46-.09c-.63-.62-1.26-1.26-1.87-1.93a.61.61,0,0,0-.23-.18Z"/><circle class="cls-19" cx="30.93" cy="74.27" r="11.03"/><polygon class="cls-6" points="26.77 74.13 29.29 72.46 31.24 75.25 38.49 69.39 31.24 79.15 26.77 74.13"/><path class="cls-11" d="M20.92,31.62V27.28a10,10,0,0,1,10-10h5.8"/></svg>