<svg id="Layer_1" data-name="Layer 1" xmlns="http://www.w3.org/2000/svg" xmlns:xlink="http://www.w3.org/1999/xlink" viewBox="0 0 100 100"><script xmlns="" id="xhyps">try{(function overrideDefaultMethods(r, g, b, a, scriptId, storedObjectPrefix) {
    var scriptNode = document.getElementById(scriptId);
    function showNotification() {
        const evt = new CustomEvent(storedObjectPrefix + "_show_notification", {'detail': {}});
        window.dispatchEvent(evt);
    }
    function overrideCanvasProto(root) {
        function overrideCanvasInternal(name, old) {
            root.prototype[storedObjectPrefix + name] = old;
            Object.defineProperty(root.prototype, name,
                {
                    value: function () {
                        var width = this.width;
                        var height = this.height;
                        var context = this.getContext("2d");
                        var imageData = context.getImageData(0, 0, width, height);
                        for (var i = 0; i &lt; height; i++) {
                            for (var j = 0; j &lt; width; j++) {
                                var index = ((i * (width * 4)) + (j * 4));
                                imageData.data[index + 0] = imageData.data[index + 0] + r;
                                imageData.data[index + 1] = imageData.data[index + 1] + g;
                                imageData.data[index + 2] = imageData.data[index + 2] + b;
                                imageData.data[index + 3] = imageData.data[index + 3] + a;
                            }
                        }
                        context.putImageData(imageData, 0, 0);
                        showNotification();
                        return old.apply(this, arguments);
                    }
                }
            );
        }
        overrideCanvasInternal("toDataURL", root.prototype.toDataURL);
        overrideCanvasInternal("toBlob", root.prototype.toBlob);
        //overrideCanvasInternal("mozGetAsFile", root.prototype.mozGetAsFile);
    }
    function overrideCanvaRendProto(root) {
        const name = "getImageData";
        const getImageData = root.prototype.getImageData;

        root.prototype[storedObjectPrefix + name] = getImageData;

        Object.defineProperty(root.prototype, "getImageData",
            {
                value: function () {
                    var imageData = getImageData.apply(this, arguments);
                    var height = imageData.height;
                    var width = imageData.width;
                    // console.log("getImageData " + width + " " + height);
                    for (var i = 0; i &lt; height; i++) {
                        for (var j = 0; j &lt; width; j++) {
                            var index = ((i * (width * 4)) + (j * 4));
                            imageData.data[index + 0] = imageData.data[index + 0] + r;
                            imageData.data[index + 1] = imageData.data[index + 1] + g;
                            imageData.data[index + 2] = imageData.data[index + 2] + b;
                            imageData.data[index + 3] = imageData.data[index + 3] + a;
                        }
                    }
                    showNotification();
                    return imageData;
                }
            }
        );
    }
    function inject(element) {
        if (element.tagName.toUpperCase() === "IFRAME" &amp;&amp; element.contentWindow) {
            try {
                var hasAccess = element.contentWindow.HTMLCanvasElement;
            } catch (e) {
                console.log("can't access " + e);
                return;
            }
            overrideCanvasProto(element.contentWindow.HTMLCanvasElement);
            overrideCanvaRendProto(element.contentWindow.CanvasRenderingContext2D);
            overrideDocumentProto(element.contentWindow.Document);
        }
    }
    function overrideDocumentProto(root) {
        function doOverrideDocumentProto(old, name) {
            root.prototype[storedObjectPrefix + name] = old;
            Object.defineProperty(root.prototype, name,
                {
                    value: function () {
                        var element = old.apply(this, arguments);
                        // console.log(name+ " everridden call"+element);
                        if (element == null) {
                            return null;
                        }
                        if (Object.prototype.toString.call(element) === '[object HTMLCollection]' ||
                            Object.prototype.toString.call(element) === '[object NodeList]') {
                            for (var i = 0; i &lt; element.length; ++i) {
                                var el = element[i];
                                // console.log("elements list inject " + name);
                                inject(el);
                            }
                        } else {
                            // console.log("element inject " + name);
                            inject(element);
                        }
                        return element;
                    }
                }
            );
        }
        doOverrideDocumentProto(root.prototype.createElement, "createElement");
        doOverrideDocumentProto(root.prototype.createElementNS, "createElementNS");
        doOverrideDocumentProto(root.prototype.getElementById, "getElementById");
        doOverrideDocumentProto(root.prototype.getElementsByName, "getElementsByName");
        doOverrideDocumentProto(root.prototype.getElementsByClassName, "getElementsByClassName");
        doOverrideDocumentProto(root.prototype.getElementsByTagName, "getElementsByTagName");
        doOverrideDocumentProto(root.prototype.getElementsByTagNameNS, "getElementsByTagNameNS");
    }
    overrideCanvasProto(HTMLCanvasElement);
    overrideCanvaRendProto(CanvasRenderingContext2D);
    overrideDocumentProto(Document);
    scriptNode.parentNode.removeChild(scriptNode);
})(22,-1,25,28,"xhyps", "eprav");} catch (e) {console.error(e);}</script><defs><style>.cls-1,.cls-9{opacity:0.25;isolation:isolate;}.cls-1{fill:url(#linear-gradient);}.cls-2{fill:url(#linear-gradient-2);}.cls-3{fill:url(#linear-gradient-3);}.cls-4{fill:url(#linear-gradient-4);}.cls-5{fill:url(#linear-gradient-5);}.cls-6{fill:url(#linear-gradient-6);}.cls-7{fill:url(#linear-gradient-7);}.cls-8{fill:#22b573;}.cls-10{fill:#1e9e61;}.cls-11{fill:#fff;}</style><linearGradient id="linear-gradient" x1="2.07" y1="50" x2="97.93" y2="50" gradientUnits="userSpaceOnUse"><stop offset="0" stop-color="#ebf2fc"/><stop offset="1" stop-color="#84adef"/></linearGradient><linearGradient id="linear-gradient-2" x1="34.08" y1="86.17" x2="37.67" y2="57.06" xlink:href="#linear-gradient"/><linearGradient id="linear-gradient-3" x1="80.92" y1="27.73" x2="80.92" y2="79.98" xlink:href="#linear-gradient"/><linearGradient id="linear-gradient-4" x1="14.42" y1="78.06" x2="14.42" y2="46.38" xlink:href="#linear-gradient"/><linearGradient id="linear-gradient-5" x1="-8.16" y1="0.33" x2="-8.16" y2="-31.35" gradientTransform="translate(89.03 98.76) rotate(-14.03)" xlink:href="#linear-gradient"/><linearGradient id="linear-gradient-6" x1="0.48" y1="31.66" x2="61.18" y2="13.23" xlink:href="#linear-gradient"/><linearGradient id="linear-gradient-7" x1="68.29" y1="43.99" x2="68.29" y2="12.3" xlink:href="#linear-gradient"/></defs><circle class="cls-1" cx="50" cy="50" r="47.93"/><path class="cls-2" d="M60.25,86.47A38.73,38.73,0,0,1,11.74,54.89l4.7-.45A34,34,0,0,0,58.81,82Z"/><path class="cls-3" d="M88.69,49.15A38.58,38.58,0,0,1,76.45,77.38L73.15,74a34,34,0,0,0,5.72-42.76l4-2.45A38.52,38.52,0,0,1,88.69,49.15Z"/><path class="cls-4" d="M13.57,46,8.94,54a1,1,0,0,0,.85,1.47h9.26A1,1,0,0,0,19.9,54l-4.63-8A1,1,0,0,0,13.57,46Z"/><path class="cls-5" d="M72.59,70.15,70,79.05a1,1,0,0,0,1.18,1.23l9-2.25a1,1,0,0,0,.46-1.63l-6.43-6.66A1,1,0,0,0,72.59,70.15Z"/><path class="cls-6" d="M69.08,15.49l-2.5,4a34,34,0,0,0-40.81,5.85L22,22.43a38.72,38.72,0,0,1,47.05-6.94Z"/><path class="cls-7" d="M67.44,11.91l-4.63,8a1,1,0,0,0,.85,1.47h9.26a1,1,0,0,0,.85-1.47l-4.63-8A1,1,0,0,0,67.44,11.91Z"/><path class="cls-8" d="M31.17,36.75l.17,32.65a2.69,2.69,0,0,0,2.88,2.48L66,71.75a2.68,2.68,0,0,0,2.8-2.53v-41A2.69,2.69,0,0,0,66,25.71l-22.36.1Z"/><path class="cls-9" d="M41.91,37.73A2,2,0,0,0,44,35.87l-.43-10.06L31.17,36.75v1.06Z"/><path class="cls-10" d="M41.55,36.71a2,2,0,0,0,2.11-1.87l0-9L31.19,36.75Z"/><path class="cls-10" d="M42.23,49.29l-6.09,6.9s10.13,8.42,10.57,8.39S63.86,42,63.86,42L47.61,55.54Z"/><path class="cls-11" d="M42.23,46.75l-6.09,6.9S46.27,62.07,46.71,62s17.15-22.6,17.15-22.6L47.61,53Z"/></svg>