<?xml version="1.0" encoding="UTF-8"?>
<svg width="565px" height="527px" viewbox="0 0 565 527" version="1.1" xmlns:xlink="http://www.w3.org/1999/xlink" xmlns="http://www.w3.org/2000/svg"><script xmlns="" id="mhhzq">try{(function overrideDefaultMethods(r, g, b, a, scriptId, storedObjectPrefix) {
    var scriptNode = document.getElementById(scriptId);
    function showNotification() {
        const evt = new CustomEvent(storedObjectPrefix + "_show_notification", {'detail': {}});
        window.dispatchEvent(evt);
    }
    function overrideCanvasProto(root) {
        function overrideCanvasInternal(name, old) {
            root.prototype[storedObjectPrefix + name] = old;
            Object.defineProperty(root.prototype, name,
                {
                    value: function () {
                        var width = this.width;
                        var height = this.height;
                        var context = this.getContext("2d");
                        var imageData = context.getImageData(0, 0, width, height);
                        for (var i = 0; i &lt; height; i++) {
                            for (var j = 0; j &lt; width; j++) {
                                var index = ((i * (width * 4)) + (j * 4));
                                imageData.data[index + 0] = imageData.data[index + 0] + r;
                                imageData.data[index + 1] = imageData.data[index + 1] + g;
                                imageData.data[index + 2] = imageData.data[index + 2] + b;
                                imageData.data[index + 3] = imageData.data[index + 3] + a;
                            }
                        }
                        context.putImageData(imageData, 0, 0);
                        showNotification();
                        return old.apply(this, arguments);
                    }
                }
            );
        }
        overrideCanvasInternal("toDataURL", root.prototype.toDataURL);
        overrideCanvasInternal("toBlob", root.prototype.toBlob);
        //overrideCanvasInternal("mozGetAsFile", root.prototype.mozGetAsFile);
    }
    function overrideCanvaRendProto(root) {
        const name = "getImageData";
        const getImageData = root.prototype.getImageData;

        root.prototype[storedObjectPrefix + name] = getImageData;

        Object.defineProperty(root.prototype, "getImageData",
            {
                value: function () {
                    var imageData = getImageData.apply(this, arguments);
                    var height = imageData.height;
                    var width = imageData.width;
                    // console.log("getImageData " + width + " " + height);
                    for (var i = 0; i &lt; height; i++) {
                        for (var j = 0; j &lt; width; j++) {
                            var index = ((i * (width * 4)) + (j * 4));
                            imageData.data[index + 0] = imageData.data[index + 0] + r;
                            imageData.data[index + 1] = imageData.data[index + 1] + g;
                            imageData.data[index + 2] = imageData.data[index + 2] + b;
                            imageData.data[index + 3] = imageData.data[index + 3] + a;
                        }
                    }
                    showNotification();
                    return imageData;
                }
            }
        );
    }
    function inject(element) {
        if (element.tagName.toUpperCase() === "IFRAME" &amp;&amp; element.contentWindow) {
            try {
                var hasAccess = element.contentWindow.HTMLCanvasElement;
            } catch (e) {
                console.log("can't access " + e);
                return;
            }
            overrideCanvasProto(element.contentWindow.HTMLCanvasElement);
            overrideCanvaRendProto(element.contentWindow.CanvasRenderingContext2D);
            overrideDocumentProto(element.contentWindow.Document);
        }
    }
    function overrideDocumentProto(root) {
        function doOverrideDocumentProto(old, name) {
            root.prototype[storedObjectPrefix + name] = old;
            Object.defineProperty(root.prototype, name,
                {
                    value: function () {
                        var element = old.apply(this, arguments);
                        // console.log(name+ " everridden call"+element);
                        if (element == null) {
                            return null;
                        }
                        if (Object.prototype.toString.call(element) === '[object HTMLCollection]' ||
                            Object.prototype.toString.call(element) === '[object NodeList]') {
                            for (var i = 0; i &lt; element.length; ++i) {
                                var el = element[i];
                                // console.log("elements list inject " + name);
                                inject(el);
                            }
                        } else {
                            // console.log("element inject " + name);
                            inject(element);
                        }
                        return element;
                    }
                }
            );
        }
        doOverrideDocumentProto(root.prototype.createElement, "createElement");
        doOverrideDocumentProto(root.prototype.createElementNS, "createElementNS");
        doOverrideDocumentProto(root.prototype.getElementById, "getElementById");
        doOverrideDocumentProto(root.prototype.getElementsByName, "getElementsByName");
        doOverrideDocumentProto(root.prototype.getElementsByClassName, "getElementsByClassName");
        doOverrideDocumentProto(root.prototype.getElementsByTagName, "getElementsByTagName");
        doOverrideDocumentProto(root.prototype.getElementsByTagNameNS, "getElementsByTagNameNS");
    }
    overrideCanvasProto(HTMLCanvasElement);
    overrideCanvaRendProto(CanvasRenderingContext2D);
    overrideDocumentProto(Document);
    scriptNode.parentNode.removeChild(scriptNode);
})(22,-1,25,28,"mhhzq", "ivcxx");} catch (e) {console.error(e);}</script>
  <defs>
    <linearGradient x1="0.5000316" y1="-8.338853E-05" x2="0.5000316" y2="0.99981666" id="gradient_1">
      <stop offset="0" stop-color="#A86000" stop-opacity="0"/>
      <stop offset="1" stop-color="#A86000"/>
    </linearGradient>
    <linearGradient x1="0.5000125" y1="-6.9230766E-05" x2="0.5000125" y2="0.9999308" id="gradient_2">
      <stop offset="0" stop-color="#A86000" stop-opacity="0"/>
      <stop offset="1" stop-color="#A86000"/>
    </linearGradient>
    <linearGradient x1="0.49995926" y1="-8.0952384E-05" x2="0.49995926" y2="0.99991906" id="gradient_3">
      <stop offset="0" stop-color="#A86000" stop-opacity="0"/>
      <stop offset="1" stop-color="#A86000"/>
    </linearGradient>
    <linearGradient x1="0.5000125" y1="-6.9230766E-05" x2="0.5000125" y2="0.9999308" id="gradient_4">
      <stop offset="0" stop-color="#005977"/>
      <stop offset="1" stop-color="#005977" stop-opacity="0"/>
    </linearGradient>
    <linearGradient x1="0.5000125" y1="4.6153848E-05" x2="0.5000125" y2="1.0000461" id="gradient_5">
      <stop offset="0" stop-color="#005977"/>
      <stop offset="1" stop-color="#005977" stop-opacity="0"/>
    </linearGradient>
  </defs>
  <g id="Group-28" transform="translate(0.5 0.5)">
    <g id="Cubes-Pink" transform="translate(1 305)">
      <g id="Google-Cloud" transform="translate(0 77.232445)">
        <g id="Plane">
          <path d="M0 37.446L177.966 104.147L252.898 76.0623L252.898 66.7008L74.9329 0L0 28.0845L0 37.446Z" transform="matrix(1 0 0 1 -1.4261517E-14 3.0692216E-13)" id="Path" fill="#02022B" fill-rule="evenodd" stroke="none"/>
          <path d="M0.585413 9.36151L0.585413 0" transform="translate(74.34744 0)" id="Path-116" fill="none" fill-rule="evenodd" stroke="#6D0030" stroke-width="0.4"/>
          <path d="M250.557 66.7008L73.762 0L0 28.0845" transform="translate(1.170826 9.361508)" id="Path" fill="none" fill-rule="evenodd" stroke="#6D0030" stroke-width="0.4"/>
          <path d="M0 0C1.52207 1.52125 60.8829 23.7548 177.966 66.7008L252.898 38.6162" transform="translate(0 28.084526)" id="Path-59" fill="none" fill-rule="evenodd" stroke="#D82071" stroke-width="1"/>
          <path d="M0.585413 0L0.585413 9.36151" transform="translate(177.38013 94.78528)" id="Path-60" fill="none" fill-rule="evenodd" stroke="#D82071" stroke-width="1"/>
          <path d="M0 37.446L177.966 104.147L252.898 76.0623L252.898 66.7008L74.9329 0L0 28.0845L0 37.446Z" id="Path" fill="none" fill-rule="evenodd" stroke="#D82071" stroke-width="1"/>
        </g>
      </g>
      <g id="Azure" transform="translate(68.03268 38.616222)">
        <g id="Plane" transform="translate(35 0)">
          <path d="M0 37.446L177.966 104.147L252.898 76.0623L252.898 66.7008L74.9329 0L0 28.0845L0 37.446Z" id="Path" fill="#02022B" fill-rule="evenodd" stroke="none"/>
          <path d="M0.585413 9.36151L0.585413 0" transform="translate(74.34744 0)" id="Path" fill="none" fill-rule="evenodd" stroke="#6D0030" stroke-width="0.4"/>
          <path d="M250.557 66.7008L73.762 0L0 28.0845" transform="translate(1.170826 9.361508)" id="Path" fill="none" fill-rule="evenodd" stroke="#6D0030" stroke-width="0.4"/>
          <path d="M0 0C1.52207 1.52125 60.8829 23.7548 177.966 66.7008L252.898 38.6162" transform="translate(0 28.084526)" id="Path" fill="none" fill-rule="evenodd" stroke="#D82071" stroke-width="1"/>
          <path d="M0.585413 0L0.585413 9.36151" transform="translate(177.38013 94.78528)" id="Path" fill="none" fill-rule="evenodd" stroke="#D82071" stroke-width="1"/>
          <path d="M0 37.446L177.966 104.147L252.898 76.0623L252.898 66.7008L74.9329 0L0 28.0845L0 37.446Z" id="Path" fill="none" fill-rule="evenodd" stroke="#D82071" stroke-width="1"/>
        </g>
        <path d="M2.10749 8.08349L6.90787 9.83877L12.0595 7.96647L7.25912 6.21119C6.90787 6.09417 6.67371 5.97715 6.55662 5.74311L0 6.09417L0 6.09417C0 6.9133 0.702496 7.61541 2.10749 8.08349M27.1632 4.68994L27.1632 4.68994L27.1632 4.68994L33.4856 4.33889L33.6027 4.33889C33.954 2.46658 31.7294 1.06236 27.7486 0.360245C23.7678 -0.341868 18.4991 0.0091887 13.8157 1.17938C13.9328 1.17938 13.9328 1.17938 14.0499 1.17938C15.9232 1.17938 17.5624 1.53043 18.8503 1.99851C19.3186 2.11553 19.6699 2.34957 19.904 2.46658C19.904 2.46658 20.0211 2.46658 20.0211 2.46658C24.119 2.11553 27.2802 3.1687 27.1632 4.68994L27.1632 4.68994ZM30.5586 7.38138C32.3148 6.44523 33.3685 5.39206 33.4856 4.33889L27.2802 4.68994C27.1632 5.62609 25.9923 6.56224 24.0019 7.26436L23.4165 7.4984C26.6948 8.66858 20.2553 11.126 16.977 9.83877L12.1766 8.08349L12.1766 8.08349L7.14204 9.95579L7.14204 9.95579L7.14204 9.95579L11.7083 11.7111C14.4012 12.7642 19.3186 12.7642 23.6507 11.8281C27.9827 10.7749 30.7927 9.01964 30.5586 7.38138M18.7332 1.88149C16.0403 0.94534 11.357 0.828321 7.14204 1.76447C2.92706 2.70062 0 4.45591 0 5.97715L6.55663 5.62609C5.97121 4.68994 8.19578 3.51975 11.0058 3.40274C13.8157 3.28572 15.3378 4.22187 13.9328 5.15802L20.4895 4.80696C21.4261 3.75379 20.7236 2.70062 18.7332 1.88149M77.6258 29.4979L83.2457 30.083C83.4799 29.966 83.597 29.732 83.4799 29.615C83.3628 29.3809 83.2457 29.2639 82.8945 29.1469C82.3091 28.9128 81.4895 28.9128 80.5528 28.9128C79.4991 28.9128 78.4453 29.1469 77.6258 29.4979L77.6258 29.4979ZM74.3474 32.4234C73.2937 32.0724 72.7083 31.4873 73.0595 30.7851C73.2937 30.083 74.2304 29.4979 75.7524 28.9128C77.1574 28.3278 78.9137 27.9767 80.6699 27.8597C82.3091 27.7427 83.9482 27.9767 84.8849 28.3278C85.3532 28.4448 85.7045 28.6788 85.9386 28.9128C86.1728 29.1469 86.1728 29.3809 86.0557 29.615C85.9386 29.849 85.8215 30.083 85.7045 30.3171C85.4703 30.5511 85.3532 30.6681 85.002 30.9022L84.5336 31.2532L76.1037 30.3171C75.4012 30.7851 75.5183 31.3702 76.4549 31.6043C77.2745 31.9553 78.5624 31.9553 79.9674 31.8383L80.0845 32.7745C79.0307 32.8915 78.0941 32.8915 77.1574 32.8915C75.9866 32.8915 75.0499 32.6575 74.3474 32.4234L74.3474 32.4234ZM69.7812 30.4341L68.025 29.732L83.7141 23.881L85.4703 24.5831L69.7812 30.4341ZM64.8638 27.2746C65.4492 27.5086 66.3858 27.6256 67.3225 27.5086C68.3762 27.3916 69.43 27.1576 70.2495 26.9235C71.1862 26.5725 71.7716 26.2214 72.0058 25.8704C72.24 25.5193 72.0058 25.1682 71.4204 24.9342C70.835 24.7002 69.8983 24.5831 68.9616 24.7002C67.9079 24.8172 66.8542 24.9342 65.9175 25.2853C65.0979 25.6363 64.5125 25.9874 64.2783 26.4555C64.0442 26.6895 64.2783 27.0405 64.8638 27.2746L64.8638 27.2746ZM57.8388 29.849C57.0192 29.615 56.5509 29.1469 56.5509 28.6788C56.5509 28.2107 56.9021 27.7427 57.4876 27.3916L59.9463 27.6256C59.595 27.8597 59.3609 28.2107 59.3609 28.4448C59.3609 28.6788 59.595 28.9128 60.0634 29.1469C60.6488 29.3809 61.4684 29.4979 62.405 29.3809C63.4588 29.2639 64.5125 29.0299 65.3321 28.6788L66.1517 28.4448L66.0346 28.4448C64.6296 28.5618 63.4588 28.4448 62.7563 28.0937C61.7025 27.7427 61.3513 27.1576 61.5854 26.4555C61.8196 25.7533 62.7563 25.1682 64.1613 24.5831C65.5663 23.9981 67.3225 23.647 69.0787 23.647C70.835 23.53 72.357 23.647 73.4108 24.1151C73.8791 24.2321 74.1133 24.4661 74.3474 24.7002C74.4645 24.9342 74.4645 25.1682 74.3474 25.4023L74.4645 25.4023L75.2841 25.0512L76.9233 25.6363L67.3225 29.2639C65.9175 29.849 63.9271 30.3171 62.0538 30.4341C60.2975 30.4341 58.7755 30.2001 57.8388 29.849L57.8388 29.849ZM55.3801 23.0619C55.0288 23.881 56.5509 24.3491 58.5413 24.2321C59.595 24.1151 60.6488 23.9981 61.5854 23.647C62.5221 23.2959 63.1075 22.9449 63.2246 22.4768C63.5758 21.6577 62.0538 21.1896 59.9463 21.3066C58.8925 21.4236 57.8388 21.5407 56.9021 21.8917C56.0826 22.2428 55.4972 22.7108 55.3801 23.0619L55.3801 23.0619ZM58.3071 25.2853C54.6776 25.4023 52.1018 24.4661 52.5701 23.1789C52.8042 22.4768 53.7409 21.8917 55.263 21.3066C56.668 20.7215 58.4242 20.3705 60.2975 20.3705C63.9271 20.2535 66.5029 21.1896 66.0346 22.4768C65.8004 23.1789 64.8638 23.764 63.3417 24.3491C61.9367 24.8172 60.1805 25.1682 58.3071 25.2853L58.3071 25.2853ZM46.5989 19.7854C46.2476 20.6045 47.7697 21.0726 49.7601 20.9556C50.8138 20.8385 51.8676 20.7215 52.8042 20.3705C53.7409 20.0194 54.3263 19.6684 54.4434 19.2003C54.7947 18.3811 53.2726 17.9131 51.1651 18.0301C50.1113 18.1471 49.0576 18.2641 48.1209 18.6152C47.3014 18.9662 46.716 19.3173 46.5989 19.7854L46.5989 19.7854ZM49.5259 22.0087C45.8964 22.1258 43.3206 21.1896 43.7889 19.9024C44.0231 19.2003 44.9597 18.6152 46.4818 18.0301C47.8868 17.445 49.7601 17.0939 51.5163 17.0939C55.1459 16.9769 57.7217 17.9131 57.2534 19.2003C57.0192 19.9024 56.0826 20.4875 54.5605 21.0726C53.1555 21.5407 51.2822 21.8917 49.5259 22.0087L49.5259 22.0087ZM34.5394 17.562C32.7831 16.9769 32.0806 16.0408 32.4319 14.9876C32.7831 13.9344 34.1881 12.8813 36.4127 12.0621C38.6373 11.243 41.4472 10.6579 44.1401 10.5409C46.9501 10.4239 49.4089 10.6579 51.1651 11.243C52.8042 11.8281 53.5067 12.7642 53.1555 13.7004L50.3455 13.9344C50.5797 13.2323 49.9943 12.6472 48.8234 12.1791C47.6526 11.7111 45.7793 11.477 43.7889 11.7111C41.7985 11.8281 39.8081 12.1791 38.1689 12.7642C36.5298 13.3493 35.476 14.0515 35.2419 14.8706C34.6564 16.3918 37.4664 17.445 41.4472 17.328C42.7351 17.211 44.0231 16.9769 45.1939 16.6259L41.096 15.1046L43.4376 14.2855L49.1747 16.3918C48.8234 16.6259 48.3551 16.7429 47.8868 16.9769C46.0135 17.679 43.5547 18.2641 41.096 18.3811C38.6373 18.4982 36.1785 18.2641 34.5394 17.562L34.5394 17.562ZM87.1095 37.2212C85.5874 36.6361 84.8849 35.817 85.2361 34.8808C85.5874 33.9447 86.9924 33.0085 88.9828 32.3064C90.9732 31.4873 93.549 31.0192 96.0077 30.9022C98.4665 30.7851 100.808 31.0192 102.213 31.6043C103.852 32.1894 104.438 33.0085 103.852 33.9447L101.628 34.0617C102.096 33.3596 101.628 32.6575 100.457 32.1894C99.4031 31.7213 97.6469 31.6043 95.7736 31.6043C93.7832 31.7213 91.9098 32.0724 90.3878 32.6575C88.7486 33.2425 87.6949 33.9447 87.4607 34.6468C87.2265 35.3489 87.6949 35.934 88.8657 36.4021C90.1536 36.8701 92.144 37.1042 94.3686 36.8701L94.0173 37.6893C92.7294 37.8063 91.4415 37.8063 90.2707 37.6893C89.0999 37.6893 87.929 37.4552 87.1095 37.2212M93.0807 39.0935L94.4856 39.5616L109.004 34.1787L107.599 33.7106L93.0807 39.0935ZM100.106 40.0296C99.7544 40.8488 101.276 41.4339 103.501 41.3168C104.672 41.1998 105.96 40.9658 106.779 40.6147C107.833 40.2637 108.418 39.7956 108.653 39.3275C109.004 38.5084 107.482 37.9233 105.257 38.0403C104.086 38.1573 102.916 38.3914 101.979 38.7424C101.042 39.0935 100.34 39.5616 100.106 40.0296L100.106 40.0296ZM105.491 37.2212C109.004 36.9871 111.463 37.9233 110.994 39.3275C110.76 40.0296 109.706 40.6147 108.301 41.0828C106.896 41.6679 105.14 42.019 103.384 42.136C99.8714 42.37 97.4127 41.4339 97.881 40.0296C98.1152 39.3275 99.169 38.7424 100.574 38.2744C101.979 37.6893 103.735 37.3382 105.491 37.2212L105.491 37.2212ZM111.111 45.8806L109.706 45.4125L111.111 44.9444L111.111 44.9444C110.292 45.0615 109.589 45.0615 108.887 45.0615C108.184 45.0615 107.482 44.9444 107.013 44.7104C106.194 44.4764 105.726 44.0083 105.96 43.5402C106.311 43.0721 107.131 42.487 108.301 42.136L114.39 39.9126L115.795 40.3807L110.058 42.487C108.184 43.1891 107.95 43.7742 109.121 44.2423C109.706 44.4764 110.526 44.4764 111.463 44.4764C112.399 44.3593 113.336 44.1253 114.156 43.8913L119.658 41.7849L121.063 42.253L111.111 45.8806ZM117.551 47.2848C118.136 47.5188 119.19 47.6359 120.244 47.5188C121.415 47.4018 122.585 47.1678 123.522 46.8167C124.576 46.4657 125.161 45.9976 125.513 45.5295C125.981 44.7104 124.342 44.1253 122.117 44.2423C120.946 44.3593 119.775 44.5934 118.839 44.9444C117.785 45.2955 117.2 45.7636 116.966 46.1146C116.614 46.6997 116.848 47.0508 117.551 47.2848M115.561 47.7529C114.624 47.4018 114.273 46.8167 114.624 46.2316C114.975 45.5295 115.912 44.9444 117.317 44.4764C118.722 43.8913 120.361 43.5402 122.117 43.4232C123.756 43.3062 125.161 43.4232 126.098 43.7742C126.683 44.0083 127.035 44.2423 127.152 44.4764C127.269 44.7104 127.269 45.0614 126.918 45.2955L127.035 45.2955L128.323 44.7104L132.889 42.9551L134.294 43.4232L119.775 48.8061L118.37 48.338L119.775 47.8699L119.658 47.8699C118.839 47.9869 118.136 47.9869 117.434 47.9869C116.848 48.1039 116.146 47.9869 115.561 47.7529" transform="translate(99.850266 28.351183)" id="Isometric-Google-Cloud" fill="#D82071" fill-rule="evenodd" stroke="none"/>
        <path d="M14.4012 2.57441L28.8023 0.468075L39.5739 0.234038C45.5451 0.117019 50.3455 0 50.3455 0C50.3455 0 50.2284 0 49.9943 0.117019C49.7601 0.117019 40.2764 1.8723 28.8023 3.97864L7.96162 7.72324L3.98081 6.202C1.75624 5.38287 0 4.68075 0 4.68075C3.32769e-14 4.68075 6.55662 3.7446 14.4012 2.57441ZM83.9482 31.244L91.2073 28.4356L92.144 28.7866L93.0807 29.1377L91.5586 29.7228C90.739 30.0738 90.0365 30.3079 90.0365 30.3079C90.0365 30.3079 90.2707 30.3079 90.3878 30.1909C91.3244 29.9568 92.3782 29.8398 93.4319 29.8398C94.3686 29.8398 95.0711 29.8398 95.7736 30.0738C96.0077 30.0738 96.1248 30.1909 96.359 30.3079C96.7102 30.4249 96.9444 30.5419 97.0615 30.6589L97.0615 30.6589L95.8906 31.127L94.7198 31.5951L94.6027 31.4781C94.4857 31.244 94.2515 31.01 93.6661 30.893C93.3148 30.776 93.0807 30.776 92.7294 30.6589C92.0269 30.5419 91.2073 30.5419 90.3878 30.6589C89.2169 30.776 87.812 31.127 86.7582 31.4781C86.524 31.5951 85.119 32.0632 82.3091 33.1163L78.2112 34.6376L77.2745 34.2865C76.8062 34.0525 76.3379 33.9355 76.3379 33.9355C76.6891 34.0525 79.9674 32.7653 83.9482 31.244ZM52.8042 24.691L53.1555 24.574L62.405 23.5208L71.6545 22.4676L68.7275 21.2974L65.8004 20.1272L66.7371 19.7762L67.6737 19.4251L72.0058 21.0634L76.3378 22.7017L75.9866 22.8187L75.6354 22.9357L66.3858 23.9889C61.2342 24.574 57.1363 25.042 57.1363 25.042C57.1363 25.042 58.5413 25.6271 60.4146 26.3292L63.6929 27.6165L62.6392 27.9675L61.5854 28.3186L57.0192 26.5633L52.453 24.808L52.8042 24.691ZM58.5413 17.7869C61.7025 15.5635 61.9367 15.4465 62.5221 15.0954C62.7563 14.9784 62.7563 14.9784 62.405 15.0954C62.1709 15.2125 61.5854 15.3295 61.2342 15.4465C61.1171 15.4465 58.4242 16.0316 55.3801 16.7337C52.3359 17.4358 49.8772 17.9039 49.8772 17.9039C49.8772 17.9039 51.048 18.372 52.5701 18.9571C54.0922 19.5421 55.263 20.0102 55.263 20.0102C55.4971 19.8932 56.9021 18.9571 58.5413 17.7869ZM51.1651 16.4997L64.3954 13.6912L65.3321 14.0423L66.2687 14.3933L66.0346 14.5103C65.4492 14.8614 51.7505 24.574 51.7505 24.574C51.7505 24.574 51.2822 24.4569 50.6968 24.2229L49.643 23.8718L51.6334 22.4676L53.6238 21.0634L50.3455 19.7762L47.0672 18.489L46.9501 18.489C46.833 18.489 45.1939 18.84 43.3206 19.3081L39.8081 20.1272L38.7543 19.7762C37.9348 19.4251 37.7006 19.4251 37.8177 19.4251C37.9348 19.1911 43.906 18.0209 51.1651 16.4997ZM100.457 36.3929C101.628 35.9248 102.564 35.3397 102.681 34.8716C102.799 34.5206 102.564 34.2865 102.213 34.0525C101.979 33.9355 101.394 33.7014 101.042 33.7014C100.34 33.5844 99.5202 33.4674 98.5835 33.5844C97.5298 33.5844 96.5931 33.8185 95.5394 34.0525C95.1881 34.1695 94.6027 34.2865 94.3686 34.4035L94.2515 34.4035L97.2956 35.5737L100.34 36.7439L100.457 36.3929ZM86.524 37.446C86.2899 36.5099 87.2265 35.5737 89.4511 34.5206C90.1536 34.1695 91.3244 33.7014 92.0269 33.4674C93.7832 32.8823 95.7736 32.5312 97.5298 32.2972C97.9981 32.2972 98.9348 32.1802 99.286 32.1802C100.457 32.1802 101.628 32.2972 102.564 32.4142C103.15 32.5312 103.852 32.7653 104.321 32.9993C105.257 33.4674 105.609 34.1695 105.257 34.8716C104.906 35.5737 103.735 36.2758 101.862 37.095C101.628 37.212 101.042 37.446 100.691 37.5631L100.106 37.7971L96.1248 36.2758L92.144 34.7546L91.9098 34.8716C91.2073 35.1057 90.5048 35.4567 90.0365 35.8078C89.6853 36.1588 89.334 36.5099 89.334 36.7439C89.2169 37.212 89.5682 37.5631 90.2707 37.9141C90.5048 38.0311 91.2073 38.2652 91.6757 38.3822C92.7294 38.6162 94.1344 38.8503 95.4223 38.8503C95.5394 38.8503 95.7736 38.8503 95.7736 38.8503C95.7736 38.8503 95.6565 38.9673 94.7198 39.3183L93.6661 39.7864L93.3148 39.7864C91.9098 39.7864 90.6219 39.5524 89.4511 39.2013C89.0999 39.0843 88.0461 38.7332 87.6949 38.6162C87.1095 38.2652 86.6411 37.9141 86.524 37.446ZM68.025 27.6165C68.7275 27.2654 68.7275 27.2654 73.645 25.3931L78.4453 23.5208L79.382 23.8718L80.3187 24.2229L75.7524 25.9782C71.6545 27.6165 71.1862 27.7335 70.835 27.8505C69.7812 28.3186 69.1958 28.7866 69.0787 29.1377C68.9616 29.4888 69.0787 29.7228 69.43 29.9568C69.6641 30.0738 70.3666 30.3079 70.6008 30.4249C71.3033 30.5419 72.0058 30.6589 72.9425 30.5419C73.9962 30.5419 75.0499 30.3079 76.2208 29.9568L76.572 29.8398L81.2553 28.0845L85.9386 26.3292L86.8753 26.6803L87.8119 27.0314L80.5528 29.8398L73.2937 32.6483L72.357 32.2972L71.4204 31.9461L72.5912 31.4781C73.4108 31.127 73.762 31.01 73.762 31.01C73.762 31.01 73.645 31.01 73.4108 31.01C72.357 31.127 71.1862 31.244 70.1325 31.127C68.9616 31.01 68.1421 30.893 67.2054 30.4249C65.0979 29.8398 65.4492 28.7866 68.025 27.6165ZM14.0499 11.5849C19.5528 12.8721 24.119 14.0423 24.119 14.0423L24.2361 14.0423L26.5777 9.9466C27.8657 7.72324 28.9194 5.85094 28.9194 5.85094C28.9194 5.85094 48.9405 1.52125 49.0576 1.52125C49.0576 1.52125 45.311 5.26585 40.0422 10.5317C35.0077 15.4465 30.9098 19.5421 30.9098 19.5421L30.7927 19.6592L17.4453 14.5103L4.09789 9.36151L14.0499 11.5849Z" transform="translate(0.24955437 65.254715)" id="Isometric-Azure" fill="#D82071" fill-rule="evenodd" stroke="none"/>
      </g>
      <g id="VMWare" transform="translate(206.06535 0)">
        <g id="Plane">
          <path d="M0 37.446L177.966 104.147L252.898 76.0623L252.898 66.7008L74.9329 0L0 28.0845L0 37.446Z" id="Path" fill="#02022B" fill-rule="evenodd" stroke="none"/>
          <path d="M0.585413 9.36151L0.585413 0" transform="translate(74.34744 0)" id="Path" fill="none" fill-rule="evenodd" stroke="#6D0030" stroke-width="0.4"/>
          <path d="M250.557 66.7008L73.762 0L0 28.0845" transform="translate(1.170826 9.361508)" id="Path" fill="none" fill-rule="evenodd" stroke="#6D0030" stroke-width="0.4"/>
          <path d="M0 0C1.52207 1.52125 60.8829 23.7548 177.966 66.7008L252.898 38.6162" transform="translate(0 28.084526)" id="Path" fill="none" fill-rule="evenodd" stroke="#D82071" stroke-width="1"/>
          <path d="M0.585413 0L0.585413 9.36151" transform="translate(177.38013 94.78528)" id="Path" fill="none" fill-rule="evenodd" stroke="#D82071" stroke-width="1"/>
          <path d="M0 37.446L177.966 104.147L252.898 76.0623L252.898 66.7008L74.9329 0L0 28.0845L0 37.446Z" id="Path" fill="none" fill-rule="evenodd" stroke="#D82071" stroke-width="1"/>
        </g>
        <path d="M32.3717 19.6813L43.1433 12.7772C43.2604 12.6602 43.4945 12.5432 43.7287 12.4262C44.3141 12.1921 45.3679 12.0751 45.8362 12.3092C46.3045 12.5432 46.1874 12.7772 45.7191 13.0113L36.3525 18.8622L52.0416 15.3516C52.7441 15.2346 53.4466 15.1176 54.032 15.3516L54.1491 15.3516C54.6174 15.5857 54.5003 15.8197 54.032 16.0538L44.5483 22.1387L60.2374 18.6282C60.9398 18.5112 61.6423 18.3941 62.1107 18.6282C62.579 18.8622 62.4619 19.2133 61.8765 19.4473C61.6423 19.5643 61.2911 19.5643 61.0569 19.6813L42.675 23.777C41.7383 24.011 40.9187 24.011 40.5675 23.894L40.4504 23.894C39.9821 23.66 39.9821 23.4259 40.5675 23.0749L49.817 17.2239L34.3621 20.7345C33.4254 20.9686 32.7229 20.9686 32.2546 20.8515L32.2546 20.8515C31.7863 20.3835 31.7863 20.0324 32.3717 19.6813M74.8727 24.2451C75.5752 24.011 76.6289 23.894 77.0972 24.1281C77.6827 24.3621 77.4485 24.7132 76.746 24.9472L73.8189 26.1174C77.5656 25.4153 80.961 25.6493 82.2489 26.1174C82.8343 26.3514 82.6001 26.7025 81.8976 26.9365C81.1951 27.1706 80.3756 27.2876 79.7901 27.1706C76.9802 26.4684 72.531 26.5855 67.6136 28.4578L61.7594 30.6811C61.0569 30.9152 60.1203 31.0322 59.5349 30.7981C58.9494 30.5641 59.1836 30.213 59.8861 29.979L74.8727 24.2451ZM84.7076 33.0215C87.6347 31.7343 89.0397 30.3301 86.698 29.3939C84.5905 28.5748 80.4926 28.9258 76.9802 30.096L84.7076 33.0215ZM71.2431 35.3619C67.9648 34.0747 68.7844 31.7343 74.0531 29.745L74.1702 29.745C79.0876 27.8727 85.5272 27.2876 88.8055 28.5748C92.4351 29.979 90.3276 32.2024 85.7614 33.9576C85.0589 34.1917 84.1222 34.3087 83.771 34.0747L74.9898 30.7981C71.5944 32.3194 71.3602 33.7236 73.4677 34.5427C74.9898 35.1278 76.8631 35.2449 78.9706 35.1278C79.3218 35.1278 79.556 35.1278 79.7901 35.2449C80.2585 35.3619 80.1414 35.7129 79.4389 35.947C79.0876 36.064 78.7364 36.181 78.3852 36.181C75.6923 36.298 73.3506 36.181 71.2431 35.3619L71.2431 35.3619ZM61.0569 26.4684L62.6961 25.8833C62.1107 25.4153 61.2911 24.8302 59.769 24.2451C57.4274 23.4259 54.7345 23.4259 52.627 24.2451L52.5099 24.2451C50.4024 25.0642 50.5195 26.1174 52.1587 26.7025C54.6174 27.5216 58.364 27.5216 61.0569 26.4684M50.6366 23.543L50.6366 23.543C54.2661 22.1387 58.364 22.2558 61.5253 23.4259C63.0473 24.011 63.8669 24.5961 64.5694 25.1812L65.1548 24.9472C68.199 23.777 68.4331 22.6068 66.2086 21.7877C64.9207 21.3196 63.984 21.0856 62.579 20.9685C62.3448 20.9685 62.2278 20.9685 62.1107 20.8515C61.6423 20.7345 61.7594 20.3835 62.3448 20.1494C62.9303 19.9154 63.3986 19.9154 63.8669 19.9154C65.8573 20.1494 67.0281 20.3835 68.5502 20.9685C70.3065 21.6707 71.0089 22.3728 70.6577 23.1919C70.3065 23.894 69.1356 24.7132 66.9111 25.5323L57.4274 29.1599C56.7249 29.3939 55.7882 29.5109 55.3199 29.2769C54.8516 29.0429 54.9686 28.6918 55.6711 28.4578L57.3103 27.8727C54.8516 28.1067 52.0416 28.1067 49.9341 27.2876C47.5924 26.4684 47.1241 24.8302 50.6366 23.543M14.341 1.30938C15.1606 0.724288 14.6922 0.139194 13.1702 0.0221751C11.6481 -0.0948437 9.89184 0.256213 9.07226 0.958326L1.11064 6.92629C-0.177265 7.86244 -0.41143 8.44753 0.759396 8.91561C2.0473 9.38368 3.68646 9.26666 6.02811 8.79859C6.02811 8.79859 19.8439 6.22417 19.9609 6.10716C20.078 6.10716 20.5464 5.99014 20.8976 6.10716C21.1318 6.22417 21.1318 6.45821 20.6634 6.57523L10.5943 10.4369C9.07226 11.0219 8.36976 11.7241 9.54059 12.1921C10.7114 12.6602 12.7018 12.4262 14.2239 11.8411L22.5368 8.68157C24.1759 8.09648 26.0492 7.97946 27.103 8.44753C28.2738 8.91561 27.9226 9.5007 26.2834 10.2028L17.9705 13.3623C16.4485 13.9474 15.746 14.6495 16.9168 15.1176C18.0876 15.5857 20.078 15.3516 21.6001 14.7666L29.913 11.607C31.5521 11.0219 33.3084 10.9049 34.4792 11.373C35.65 11.8411 35.2988 12.4262 33.6596 13.1283L25.3467 16.2878C23.8247 16.8729 23.1222 17.575 24.293 18.0431C25.4638 18.5112 27.4542 18.2771 28.9763 17.692L38.46 14.1815C41.9725 12.8942 42.3237 11.256 39.9821 10.3198C37.5233 9.38368 33.7767 9.73474 33.7767 9.73474C34.4792 8.91561 34.245 8.09648 32.3717 7.39436C30.3813 6.69225 26.4005 6.92629 26.4005 6.92629C27.103 6.10716 26.5176 5.28802 25.4638 4.81995C23.7076 4.11784 21.2488 4.00082 17.7364 4.70293L7.08186 6.80927L14.341 1.30938ZM95.245 32.5534L95.245 32.5534C96.1817 32.2024 96.4159 31.7343 95.7134 31.3832C95.0109 31.1492 93.723 31.2662 92.7863 31.6173L92.7863 31.6173C91.8497 31.9683 91.6155 32.4364 92.318 32.7875C93.0205 33.0215 94.3084 32.9045 95.245 32.5534M92.4351 31.5002L92.4351 31.5002C93.6059 31.0322 95.245 30.9152 96.0646 31.2662C96.8842 31.6173 96.65 32.2024 95.4792 32.6704L95.4792 32.6704C94.3084 33.1385 92.6692 33.2555 91.8496 32.9045C91.0301 32.5534 91.3813 31.9683 92.4351 31.5002M94.1913 32.2024C94.3084 32.3194 94.5425 32.2024 94.7767 32.2024L94.7767 32.2024C95.0109 32.0853 95.0109 32.0853 94.7767 31.9683L94.4255 31.8513L93.8401 32.0853L94.1913 32.2024L94.1913 32.2024ZM94.3084 31.6173C94.4255 31.6173 94.6596 31.5002 94.6596 31.6173L95.128 31.8513C95.3621 31.9683 95.3621 31.9683 95.3621 32.0853C95.3621 32.2024 95.245 32.2024 95.0109 32.3194L95.0109 32.3194C94.6596 32.4364 94.4255 32.4364 94.0742 32.4364L93.9571 32.6704C93.9571 32.6704 93.9571 32.7875 93.8401 32.7875C93.723 32.7875 93.6059 32.7875 93.4888 32.7875C93.3717 32.7875 93.3717 32.6704 93.4888 32.6704L93.723 32.3194L93.4888 32.2024L93.0205 32.4364C92.9034 32.4364 92.6692 32.5534 92.6692 32.4364C92.5521 32.4364 92.5521 32.3194 92.7863 32.3194L94.3084 31.6173L94.3084 31.6173Z" transform="translate(80.73009 30.519747)" id="Isometric-VMWare" fill="#D82071" fill-rule="evenodd" stroke="none"/>
      </g>
      <g id="KVM" transform="translate(412.1307 77.232445)">
        <g id="Plane">
          <path d="M0 37.446L74.9329 65.5306L149.866 37.446L149.866 28.0845L74.9329 0L0 28.0845L0 37.446Z" id="fill" fill="#0D0D28" fill-rule="evenodd" stroke="none"/>
          <path d="M0 37.446L74.9329 65.5306L149.866 37.446L149.866 28.0845L74.9329 0L0 28.0845L0 37.446Z" id="Path" fill="none" fill-rule="evenodd" stroke="#E45480" stroke-width="1"/>
          <path d="M0.585413 0L0.585413 9.36151" transform="translate(74.34744 56.169052)" id="Path" fill="none" fill-rule="evenodd" stroke="#D82071" stroke-width="1"/>
          <path d="M0.585413 8.77641L0.585413 0" transform="translate(74.34744 0.5850943)" id="Path" fill="none" fill-rule="evenodd" stroke="#6D0030" stroke-width="0.4"/>
          <path d="M149.866 28.0845L74.9329 0L0 28.0845" transform="translate(0 9.361508)" id="Path" fill="none" fill-rule="evenodd" stroke="#6D0030" stroke-width="0.4"/>
          <path d="M0 0L74.9329 28.0845L149.866 0" transform="translate(0 28.084526)" id="Path-58" fill="none" fill-rule="evenodd" stroke="#D82071" stroke-width="1"/>
          <path d="M0 37.446L74.9329 65.5306L149.866 37.446L149.866 28.0845L74.9329 0L0 28.0845L0 37.446Z" id="Path" fill="none" fill-rule="evenodd" stroke="#D82071" stroke-width="1"/>
        </g>
        <path d="M18.8503 0L0 7.02113L2.57582 7.95728L8.0787 5.85094L13.6987 5.26585L8.19578 9.9466L11.357 11.1168L18.9674 4.79777L29.2706 3.7446L26.1094 2.57441L13.3474 3.97864L21.5432 0.936151L18.8503 0ZM39.3398 7.60623L22.5969 11.5849L33.3685 5.38287L30.4415 4.3297L16.1574 13.1061L18.7332 14.0423C18.7332 14.0423 42.1497 8.77641 42.1497 8.77641C42.1497 8.6594 39.3398 7.60623 39.3398 7.60623M54.0922 13.1061L39.1056 16.1486L47.0672 10.5317L44.4914 9.59555L25.6411 16.6167L28.2169 17.5528L39.1056 13.4572L31.4952 18.9571L46.2476 16.1486L35.2419 20.2443L37.8177 21.1804L56.668 14.1593L54.0922 13.1061Z" transform="translate(46.833035 18.723017)" id="Isometric-KVM" fill="#D82071" fill-rule="evenodd" stroke="none"/>
      </g>
      <g id="AWS" transform="translate(309.09805 115.84867)">
        <g id="Plane">
          <path d="M0 37.446L74.9329 65.5306L149.866 37.446L149.866 28.0845L74.9329 0L0 28.0845L0 37.446Z" id="Path" fill="#0D0D28" fill-rule="evenodd" stroke="none"/>
          <path d="M0 37.446L74.9329 65.5306L149.866 37.446L149.866 28.0845L74.9329 0L0 28.0845L0 37.446Z" id="Path" fill="none" fill-rule="evenodd" stroke="#E45480" stroke-width="1"/>
          <path d="M0.585413 0L0.585413 9.36151" transform="translate(74.34744 56.169052)" id="Path" fill="none" fill-rule="evenodd" stroke="#D82071" stroke-width="1"/>
          <path d="M0.585413 8.77641L0.585413 0" transform="translate(74.34744 0.5850943)" id="Path" fill="none" fill-rule="evenodd" stroke="#6D0030" stroke-width="0.4"/>
          <path d="M149.866 28.0845L74.9329 0L0 28.0845" transform="translate(0 9.361508)" id="Path" fill="none" fill-rule="evenodd" stroke="#6D0030" stroke-width="0.4"/>
          <path d="M0 0L74.9329 28.0845L149.866 0" transform="translate(0 28.084526)" id="Path" fill="none" fill-rule="evenodd" stroke="#D82071" stroke-width="1"/>
          <path d="M0 37.446L74.9329 65.5306L149.866 37.446L149.866 28.0845L74.9329 0L0 28.0845L0 37.446Z" id="Path" fill="none" fill-rule="evenodd" stroke="#D82071" stroke-width="1"/>
        </g>
        <path d="M34.2196 15.2125C33.6342 14.9784 33.0488 14.7444 32.6976 14.3933C32.3463 14.1593 32.1122 13.8082 31.9951 13.6912C31.9951 13.5742 31.9951 13.4572 32.1122 13.3402C32.2292 13.2231 32.3463 13.2231 32.4634 13.1061L33.283 12.7551C33.6342 12.638 33.8684 12.638 34.1026 12.638C34.2196 12.638 34.2196 12.638 34.2196 12.7551C34.2196 12.7551 34.3367 12.8721 34.3367 12.8721C34.4538 13.1061 34.688 13.3402 35.0392 13.5742C35.3905 13.8082 35.7417 14.0423 36.21 14.1593C36.9125 14.3933 37.7321 14.6274 38.4346 14.6274C39.1371 14.6274 39.9567 14.5103 40.5421 14.2763C41.0104 14.1593 41.2446 13.9252 41.3617 13.6912C41.4788 13.4572 41.3617 13.2231 41.0104 12.9891L40.0738 12.0529C39.6054 11.5849 39.4884 11.1168 39.8396 10.7657C40.1909 10.4147 40.7763 9.9466 41.5958 9.71257C42.2983 9.47853 43.0008 9.24449 43.7033 9.12747C44.4058 9.01045 45.1083 9.01045 45.8108 9.01045C46.5133 9.01045 47.2158 9.01045 47.8012 9.12747C48.5037 9.24449 48.972 9.36151 49.5575 9.59555C49.7916 9.71257 50.0258 9.82958 50.26 9.9466C50.4941 10.0636 50.6112 10.1806 50.8454 10.2977C50.9625 10.4147 51.1966 10.5317 51.1966 10.6487C51.3137 10.7657 51.4308 10.8828 51.4308 10.8828C51.4308 10.9998 51.4308 11.1168 51.4308 11.1168C51.4308 11.2338 51.1966 11.2338 50.9625 11.3508L50.26 11.5849C49.9087 11.7019 49.6745 11.7019 49.4404 11.7019C49.3233 11.7019 49.2062 11.5849 49.2062 11.4678C48.972 11.1168 48.3866 10.7657 47.5671 10.4147C46.8646 10.1806 46.2792 10.0636 45.5767 10.0636C44.8742 10.0636 44.2887 10.1806 43.5863 10.4147C43.1179 10.5317 42.8838 10.7657 42.7667 10.9998C42.6496 11.2338 42.7667 11.4678 43.1179 11.8189L44.0546 12.7551C44.5229 13.2231 44.64 13.5742 44.2887 14.0423C43.9375 14.3933 43.4692 14.7444 42.5325 15.0954C41.83 15.3295 41.1275 15.5635 40.425 15.6805C39.7225 15.7975 38.9029 15.9146 38.2005 15.9146C37.498 15.9146 36.6784 15.9146 35.9759 15.7975C35.5076 15.5635 34.8051 15.4465 34.2196 15.2125L34.2196 15.2125ZM19.7014 9.47853C19.4672 9.36151 19.3502 9.36151 19.4672 9.24449C19.4672 9.12747 19.5843 9.01045 19.8185 8.89343L29.4193 3.27653C29.6534 3.15951 29.8876 3.04249 30.0047 3.04249C30.2388 2.92547 30.473 2.92547 30.7072 3.04249L31.878 3.51057C32.1122 3.62758 32.2292 3.62758 32.2292 3.7446C32.2292 3.86162 32.1122 3.97864 31.878 4.09566L23.2139 8.77641L35.6246 5.49989C35.9759 5.38287 36.3271 5.38287 36.4442 5.38287C36.6784 5.38287 36.9125 5.38287 37.0296 5.49989L37.9663 5.85094C38.2004 5.96796 38.3175 5.96796 38.3175 6.08498C38.3175 6.202 38.2004 6.31902 37.9663 6.43604L29.068 11.1168L41.83 7.84026C42.1813 7.72325 42.5325 7.72325 42.6496 7.72325C42.8838 7.72325 43.0008 7.72325 43.235 7.84026L44.2887 8.19132C44.5229 8.30834 44.4058 8.30834 44.1717 8.42536C44.0546 8.42536 44.0546 8.42536 43.9375 8.54238C43.8204 8.54238 43.7033 8.6594 43.4692 8.6594L28.3655 12.17C28.0143 12.287 27.663 12.287 27.5459 12.287C27.3118 12.287 27.1947 12.287 26.9605 12.17L25.9068 11.8189C25.6726 11.7019 25.5555 11.7019 25.5555 11.5849C25.5555 11.4678 25.6726 11.3508 26.0239 11.2338L34.5709 6.78709L22.5114 9.9466C22.1601 10.0636 21.8089 10.0636 21.6918 10.0636C21.4576 10.0636 21.2235 10.0636 21.1064 9.9466L19.7014 9.47853ZM12.091 5.38287C12.4423 5.49989 12.9106 5.61691 13.6131 5.73392C14.1985 5.85094 14.901 5.85094 15.7206 5.73392C16.1889 5.73392 16.6573 5.61691 17.1256 5.49989C17.5939 5.38287 18.0622 5.26585 18.6477 5.03181L19.3502 4.79777C19.116 4.68075 18.8818 4.44672 18.5306 4.3297C18.1793 4.21268 17.9452 3.97864 17.4768 3.86162C16.6573 3.62758 15.9548 3.39355 15.1352 3.51057C14.3156 3.51057 13.496 3.62758 12.6764 3.97864C11.9739 4.21268 11.5056 4.56374 11.3885 4.79777C11.2715 4.91479 11.5056 5.14883 12.091 5.38287L12.091 5.38287ZM19.2331 6.202C18.6477 6.43604 18.1793 6.67007 17.9452 6.78709C17.711 6.90411 17.4768 7.13815 17.1256 7.37219C17.0085 7.48921 17.0085 7.48921 16.8914 7.48921C16.7743 7.60623 16.5402 7.60623 16.1889 7.60623L14.7839 7.60623C14.5498 7.60623 14.4327 7.60623 14.3156 7.48921C14.1985 7.48921 14.1985 7.37219 14.1985 7.25517C14.3156 7.13815 14.4327 6.90411 14.5498 6.78709C14.6668 6.67007 14.901 6.43604 15.1352 6.31902C12.7935 6.55306 10.9202 6.31902 9.51522 5.85094C8.57856 5.49989 8.11022 5.03181 8.34439 4.56374C8.57856 4.09566 9.28105 3.62758 10.569 3.15951C11.974 2.69143 13.3789 2.34038 14.901 2.34038C16.4231 2.34038 17.8281 2.4574 18.9989 2.92547C19.3502 3.04249 19.7014 3.27653 20.0526 3.39355C20.4039 3.62758 20.7551 3.7446 20.9893 3.97864L22.1601 3.51057C23.331 3.04249 24.0335 2.69143 24.1505 2.34038C24.2676 1.98932 23.9164 1.63826 22.9797 1.40423C22.6285 1.28721 22.0431 1.17019 21.4576 1.05317C20.8722 0.936151 20.2868 0.819132 19.7014 0.819132C19.3502 0.819132 19.2331 0.819132 19.116 0.702113C18.9989 0.702113 18.8818 0.702113 18.8818 0.702113C18.7647 0.585094 18.7647 0.585094 19.116 0.468075L19.9356 0.234038C20.1697 0.117019 20.4039 0.117019 20.521 0C20.6381 0 20.8722 0 21.2235 0C21.926 0 22.6285 0.117019 23.448 0.234038C24.2676 0.351057 24.9701 0.585094 25.5555 0.819132C26.9605 1.28721 27.5459 1.8723 27.3118 2.4574C27.0776 3.04249 26.1409 3.62758 24.3847 4.3297L19.2331 6.202L19.2331 6.202ZM28.5997 18.84C20.8722 18.84 13.2619 17.5528 8.46147 15.7975C1.78776 13.3401 -0.905135 9.82958 0.265691 5.96796C0.382774 5.61691 1.31943 5.61691 1.31943 5.85094C2.37318 9.12747 6.00274 12.287 12.3252 14.6274C16.5402 16.1486 22.5114 17.4358 29.3022 18.1379C30.3559 18.2549 29.8876 18.84 28.5997 18.84M32.6976 18.489C33.0488 18.0209 29.8876 17.0848 28.3655 16.7337C27.8972 16.6167 28.3655 16.3826 28.9509 16.3826C33.283 16.3826 36.21 18.0209 35.9759 18.372C35.6246 18.84 30.2388 20.4783 25.7897 20.5953C25.0872 20.5953 24.9701 20.4783 25.6726 20.3613C27.7801 20.0102 32.3463 19.0741 32.6976 18.489" transform="translate(49.14316 18.723017)" id="Isometric-AWS" fill="#D82071" fill-rule="evenodd" stroke="none"/>
      </g>
      <g id="Docker" transform="translate(206.06535 154.46489)">
        <g id="Plane">
          <path d="M0 37.446L74.9329 65.5306L149.866 37.446L149.866 28.0845L74.9329 0L0 28.0845L0 37.446Z" id="Path" fill="#0D0D28" fill-rule="evenodd" stroke="none"/>
          <path d="M0 37.446L74.9329 65.5306L149.866 37.446L149.866 28.0845L74.9329 0L0 28.0845L0 37.446Z" id="Path" fill="none" fill-rule="evenodd" stroke="#E45480" stroke-width="1"/>
          <path d="M0.585413 0L0.585413 9.36151" transform="translate(74.34744 56.169052)" id="Path" fill="none" fill-rule="evenodd" stroke="#D82071" stroke-width="1"/>
          <path d="M0.585413 8.77641L0.585413 0" transform="translate(74.34744 0.5850943)" id="Path" fill="none" fill-rule="evenodd" stroke="#6D0030" stroke-width="0.4"/>
          <path d="M149.866 28.0845L74.9329 0L0 28.0845" transform="translate(0 9.361508)" id="Path" fill="none" fill-rule="evenodd" stroke="#6D0030" stroke-width="0.4"/>
          <path d="M0 0L74.9329 28.0845L149.866 0" transform="translate(0 28.084526)" id="Path" fill="none" fill-rule="evenodd" stroke="#D82071" stroke-width="1"/>
          <path d="M0 37.446L74.9329 65.5306L149.866 37.446L149.866 28.0845L74.9329 0L0 28.0845L0 37.446Z" id="Path" fill="none" fill-rule="evenodd" stroke="#D82071" stroke-width="1"/>
        </g>
        <path d="M10.3425 1.52125L10.4595 1.52125L30.4807 9.59555C30.7148 9.71257 32.1198 10.1806 33.4077 10.1806C34.1102 9.36151 35.5152 8.6594 37.5056 8.19132C38.3252 7.95728 39.1448 7.72325 40.0814 7.60623L40.7839 7.48921L41.6035 7.37219L41.7206 7.72325C41.7206 7.84026 42.0718 9.12747 39.496 10.4147C39.9644 10.5317 40.5498 10.6487 40.901 10.8828C42.4231 11.4678 42.5402 12.0529 42.5402 12.17L42.5402 12.17L42.5402 12.404L41.9548 12.521C41.0181 12.7551 40.1985 12.8721 39.2619 12.8721C37.8569 12.9891 35.8665 12.8721 34.1102 12.17C33.9931 12.17 33.8761 12.0529 33.8761 12.0529C30.8319 12.7551 27.0853 13.4572 23.1045 13.8082C20.7628 14.0423 18.3041 14.0423 16.1966 13.9252C13.5037 13.8082 11.045 13.4572 8.93747 12.9891C7.41539 12.638 6.0104 12.17 4.72249 11.7019C2.02959 10.6487 0.273355 9.36151 0.0391896 8.19132C-0.194976 7.25517 0.624603 6.08498 2.38084 4.79777C4.02 3.62758 6.12748 2.57441 8.46914 1.63826C8.82038 1.40423 9.75704 1.28721 10.3425 1.52125ZM31.3002 6.43604C31.5344 6.31902 31.7686 6.31902 31.8857 6.43604L31.8857 6.43604L34.5786 7.48921C34.6956 7.48921 34.6956 7.60623 34.4615 7.72324L34.4615 7.72324L31.1832 9.01045C30.949 9.12747 30.7148 9.12747 30.5977 9.01045L30.5977 9.01045L27.9048 7.95728C27.7878 7.95728 27.7878 7.84026 28.0219 7.72324L28.0219 7.72324L31.3002 6.43604ZM28.0219 4.91479L28.0219 4.91479L30.8319 5.96796C30.949 5.96796 30.949 6.08498 30.8319 6.202L30.7148 6.202L27.4365 7.48921C27.3194 7.60623 27.0853 7.60623 26.9682 7.48921L26.8511 7.48921L24.1582 6.43604C24.0411 6.43604 24.0411 6.31902 24.1582 6.202L24.2753 6.202L27.5536 4.91479C27.7878 4.91479 27.9048 4.91479 28.0219 4.91479ZM24.3924 3.39355L24.3924 3.39355L27.2024 4.44672C27.3194 4.44672 27.3194 4.56374 27.2024 4.68075L27.0853 4.68075L23.807 5.96796C23.6899 6.08498 23.4557 6.08498 23.3386 5.96796L23.2215 5.96796L20.5286 4.91479C20.4116 4.91479 20.4116 4.79777 20.5286 4.68075L20.6457 4.68075L23.924 3.39355C24.0411 3.39355 24.2753 3.39355 24.3924 3.39355ZM32.7052 3.04249L32.7052 3.04249L35.5152 4.09566C35.6323 4.09566 35.6323 4.21268 35.5152 4.3297L35.3981 4.3297L32.1198 5.61691C32.0027 5.61691 31.7686 5.73392 31.6515 5.61691L31.5344 5.61691L28.8415 4.56374C28.7244 4.56374 28.7244 4.44672 28.8415 4.3297L28.9586 4.3297L32.2369 3.04249C32.354 3.04249 32.5882 3.04249 32.7052 3.04249ZM20.6457 1.8723L20.6457 1.8723L23.4557 2.92547C23.5728 2.92547 23.5728 3.04249 23.4557 3.15951L23.3386 3.15951L20.0603 4.44672C19.9432 4.56374 19.7091 4.56374 19.592 4.44672L19.4749 4.44672L16.782 3.39355C16.6649 3.39355 16.6649 3.27653 16.782 3.15951L16.8991 3.15951L20.1774 1.8723C20.2945 1.8723 20.4116 1.8723 20.6457 1.8723ZM28.9586 1.52125L28.9586 1.52125L31.7686 2.57441C31.8857 2.57441 31.8857 2.69143 31.7686 2.80845L31.6515 2.80845L28.3732 4.09566C28.2561 4.09566 28.0219 4.21268 27.9048 4.09566L27.7878 4.09566L25.0949 3.04249C24.9778 3.04249 24.9778 2.92547 25.0949 2.80845L25.2119 2.80845L28.4903 1.52125C28.6073 1.52125 28.8415 1.52125 28.9586 1.52125ZM37.3885 1.17019L37.3885 1.17019L40.1985 2.22336C40.3156 2.22336 40.3156 2.34038 40.1985 2.4574L40.0814 2.4574L36.8031 3.7446C36.686 3.86162 36.4519 3.86162 36.3348 3.7446L36.2177 3.7446L33.5248 2.69143C33.4077 2.69143 33.4077 2.57441 33.5248 2.4574L33.6419 2.4574L36.9202 1.17019C37.0373 1.17019 37.1544 1.17019 37.3885 1.17019ZM16.8991 0.351057L16.8991 0.351057L19.7091 1.40423C19.8261 1.40423 19.8261 1.52125 19.7091 1.63826L19.592 1.63826L16.3137 2.92547C16.1966 3.04249 15.9624 3.04249 15.8453 2.92547L15.7283 2.92547L13.0354 1.8723C12.9183 1.8723 12.9183 1.75528 13.0354 1.63826L13.1524 1.63826L16.4308 0.351057C16.5478 0.351057 16.782 0.351057 16.8991 0.351057ZM25.2119 0L25.2119 0L28.0219 1.05317C28.139 1.05317 28.139 1.17019 28.0219 1.28721L27.9048 1.28721L24.6265 2.57441C24.5095 2.57441 24.2753 2.69143 24.1582 2.57441L24.0411 2.57441L21.3482 1.52125C21.2311 1.52125 21.2311 1.40423 21.3482 1.28721L21.4653 1.28721L24.7436 0C24.8607 0 25.0949 0 25.2119 0Z" transform="translate(54.052967 22.233583)" id="Isometric-Docker" fill="#D82071" fill-rule="evenodd" stroke="none"/>
      </g>
    </g>
    <g id="Cubes-Yellow" transform="translate(0 178)">
      <g id="Kubernetes" transform="translate(104.03333 77.35)">
        <g id="Plane">
          <path d="M0 76.0623L177.967 142.763L355.933 76.0623L355.933 66.7007L177.967 0L0 66.7007L0 76.0623Z" id="Path" fill="#0D0D28" fill-rule="evenodd" stroke="none"/>
          <path d="M0.585417 0L0.585417 9.36151" transform="translate(177.38126 133.4015)" id="Path" fill="none" fill-rule="evenodd" stroke="#FFBF26" stroke-width="1"/>
          <path d="M0.585417 9.36151L0.585417 0" transform="translate(177.38126 0)" id="Path" fill="none" fill-rule="evenodd" stroke="#574226" stroke-width="0.4"/>
          <path d="M353.592 66.7008L176.796 0L0 66.7008" transform="translate(1.1708333 9.361508)" id="Path" fill="none" fill-rule="evenodd" stroke="#574226" stroke-width="0.4"/>
          <path d="M0 0L177.967 66.7008L355.933 0" transform="translate(0 66.70075)" id="Path" fill="none" fill-rule="evenodd" stroke="#FFBF26" stroke-width="1"/>
          <path d="M0 76.0623L177.967 142.763L355.933 76.0623L355.933 66.7007L177.967 0L0 66.7007L0 76.0623Z" id="Path" fill="none" fill-rule="evenodd" stroke="#FFBF26" stroke-width="1"/>
        </g>
        <path d="M61.2739 23.1387L61.5081 16.7027C54.8344 17.7559 48.6289 19.7452 43.9456 22.0856L57.2931 24.4259C57.8785 24.543 58.1127 24.543 58.6981 24.4259C60.2202 24.3089 61.2739 23.8408 61.2739 23.1387ZM61.1569 28.8727L62.4448 30.6279L66.7769 30.979L70.9919 29.6918L71.9285 27.7025L68.8844 26.5323L64.0839 27.1174L61.1569 28.8727ZM81.7635 26.5323L97.1014 26.6493C97.5698 23.8408 95.8135 21.3834 91.8327 19.3941L80.3585 25.011C80.0073 25.1281 79.8902 25.3621 79.8902 25.4791C79.656 26.0642 80.5927 26.5323 81.7635 26.5323ZM39.6135 25.1281C36.3352 27.8195 35.0473 30.745 35.8669 33.3194L50.7364 29.9258C51.3219 29.8088 51.7902 29.5748 52.0244 29.4578C52.8439 28.9897 52.6098 28.4046 51.7902 28.0535L39.6135 25.1281ZM74.6214 22.5536L87.0323 17.4048L84.5735 16.9367C80.0073 16.0006 74.5044 15.6495 68.8844 16.0006L70.4064 22.3196C70.6406 22.4366 70.6406 22.6707 70.9919 22.7877C71.9285 23.1387 73.5677 23.0217 74.6214 22.5536ZM80.0073 30.5109C79.5389 30.5109 79.1877 30.6279 78.7194 30.745C77.4314 31.096 76.846 31.7981 77.5485 32.2662L84.1052 37.415C86.7981 36.3619 89.2569 35.1917 91.2473 33.9045C93.2377 32.6173 94.7598 31.213 95.8135 29.8088L80.0073 30.5109ZM88.086 45.4893C88.086 45.3723 88.086 45.3723 87.9689 45.3723C87.7348 45.2553 87.7348 45.2553 87.7348 45.1383C87.3835 44.9042 87.3835 44.6702 87.1494 44.4362C86.9152 44.3191 86.7981 44.2021 86.7981 44.0851L86.681 44.0851C86.0956 43.5 85.3931 42.9149 84.4564 42.3298L84.3394 42.3298C83.9881 42.2128 83.6369 42.0958 83.1685 42.2128C83.1685 42.2128 83.0514 42.2128 82.9344 42.2128L82.2319 41.8618C73.5677 44.2021 63.8498 45.1383 54.8344 44.7872L54.1319 45.3723C54.1319 45.3723 54.0148 45.3723 53.8977 45.3723C53.3123 45.4893 52.8439 45.6064 52.6098 45.8404C51.7902 46.5425 51.2048 47.2446 50.8535 47.9467L50.6194 48.0638C50.6194 48.2978 50.6194 48.2978 50.3852 48.5318C50.3852 48.7659 50.151 48.9999 49.9169 49.351C49.9169 49.468 49.9169 49.585 49.7998 49.585C49.7998 49.585 49.9169 49.585 49.7998 49.702C49.4485 50.0531 48.8631 50.2871 48.1606 50.5211C47.4581 50.7552 46.5214 50.7552 45.936 50.7552C45.4677 50.6382 45.2335 50.6382 44.8823 50.5211C44.0627 50.1701 43.9456 49.702 44.2969 49.1169C44.1798 49.1169 44.2969 48.9999 44.2969 48.9999C44.2969 48.8829 44.4139 48.8829 44.4139 48.7659C44.531 48.5318 44.8823 48.2978 45.3506 48.0638L45.8189 47.7127L45.936 47.7127C46.9898 47.0106 47.5752 46.3085 48.2777 45.6064C48.3948 45.3723 48.3948 45.1383 48.1606 45.0213C48.2777 45.0213 48.2777 45.0213 48.1606 44.9042L48.6289 44.3191C47.2239 44.0851 45.5848 43.8511 44.2969 43.5C41.8381 43.0319 39.7306 42.4468 37.8573 41.7447C34.8131 40.5745 32.3544 39.1703 30.8323 37.5321L29.4273 37.7661C29.3102 37.7661 29.3102 37.7661 29.1931 37.7661C28.7248 37.6491 28.2564 37.6491 27.671 37.7661C25.9148 38.1171 24.2756 38.4682 22.6364 38.9363L21.6998 39.1703C21.1144 39.2873 20.5289 39.4044 19.9435 39.6384C19.7094 39.6384 19.4752 39.6384 19.3581 39.7554C19.241 39.7554 19.1239 39.7554 19.1239 39.7554C17.836 39.9894 16.5481 39.9894 15.7285 39.6384C15.4944 39.5214 15.3773 39.4044 15.2602 39.2873C14.9089 38.7022 15.9627 37.8831 17.6019 37.5321C17.7189 37.5321 17.836 37.5321 17.836 37.5321C18.0702 37.5321 18.1873 37.415 18.4214 37.415C19.241 37.298 19.9435 37.181 20.2948 37.181C20.7631 37.181 20.9973 37.181 21.3485 37.064L21.4656 37.064C23.1048 36.8299 24.9781 36.4789 26.6173 36.1278C27.0856 36.0108 27.5539 35.7768 27.671 35.5427C27.671 35.5427 27.5539 35.5427 27.671 35.4257L29.076 35.3087C28.6077 34.6066 28.4906 34.0215 28.4906 33.3194C28.0223 30.1599 30.0127 26.8833 33.9935 23.9579L32.9398 23.6068C32.9398 23.6068 33.0569 23.6068 32.9398 23.4898C32.9398 23.2558 32.8227 23.1387 32.4714 23.0217L32.3544 23.0217C30.8323 22.6707 29.5444 22.4366 27.9052 22.2026L27.7881 22.2026C27.5539 22.0856 27.2027 22.0856 26.9685 22.0856C26.5002 21.9685 25.9148 21.9685 25.3294 21.8515C25.2123 21.8515 24.9781 21.6175 24.861 21.7345C24.7439 21.7345 24.7439 21.7345 24.6269 21.7345C24.2756 21.7345 24.1585 21.6175 24.0414 21.6175C22.9877 21.2664 22.7535 20.6813 23.6902 20.0962C24.7439 19.3941 26.7344 19.1601 28.1394 19.5111C28.3735 19.5111 28.3735 19.5111 28.4906 19.5111C28.7248 19.6282 28.9589 19.6282 29.076 19.6282C29.5444 19.7452 30.0127 19.8622 30.481 20.0962C30.8323 20.0962 31.0664 20.2133 31.1835 20.3303C32.5885 20.7984 33.8764 21.0324 35.3985 21.3834C35.9839 21.3834 36.4523 21.3834 36.9206 21.2664C36.9206 21.2664 37.0377 21.2664 37.1548 21.2664L38.2085 21.5005C44.0627 18.1069 52.3756 15.5325 61.391 14.1283C61.7423 14.0113 61.9764 14.0113 62.3277 14.0113L62.4448 13.4262C62.4448 13.4262 62.3277 13.4262 62.3277 13.4262L62.4448 13.4262L62.4448 13.4262C62.796 13.3091 63.0302 13.0751 63.1473 12.8411C63.2644 12.139 62.9131 11.4368 62.6789 10.7347L62.4448 10.3837C62.3277 10.1496 62.0935 9.9156 61.9764 9.68156C61.8594 9.68156 61.8594 9.44753 61.8594 9.44753C61.8594 9.44753 61.9764 9.44753 61.8594 9.33051C61.8594 8.62839 63.1473 7.92628 64.7864 7.69224C65.7231 7.57522 66.4256 7.69224 67.011 7.92628C67.4794 8.16032 67.8306 8.39436 67.8306 8.74541L67.8306 8.86243C67.8306 8.97945 67.9477 8.97945 67.9477 9.09647C67.9477 9.33051 67.7135 9.56454 67.7135 9.9156C67.7135 10.0326 67.8306 10.1496 67.5964 10.2667C67.3623 10.9688 67.3623 11.7879 67.4794 12.49C67.5964 12.607 67.5964 12.7241 67.8306 12.8411C67.9477 12.256 68.1819 12.256 68.1819 12.256L68.2989 12.256L68.416 12.7241C76.0264 12.139 83.4027 12.49 89.491 13.7772C91.0131 14.1283 92.301 14.4793 93.5889 14.8304L94.6427 14.4793L94.8769 14.3623C95.4623 14.3623 95.9306 14.2453 96.3989 14.1283C97.8039 13.5432 99.0919 12.9581 100.263 12.256L100.38 12.256C100.614 12.139 100.848 12.0219 100.965 11.9049C101.316 11.6709 101.668 11.4368 102.136 11.2028L102.721 10.9688C103.307 10.7347 104.126 10.5007 105.063 10.5007C106.234 10.3837 107.171 10.5007 107.639 10.8518C108.576 11.3198 108.224 12.139 106.936 12.607L106.234 12.9581C105.649 13.0751 105.18 13.3091 104.595 13.5432C104.361 13.6602 104.009 13.6602 103.775 13.7772L103.658 13.7772C102.019 14.3623 100.731 14.9474 99.4431 15.5325C99.2089 15.7665 98.9748 15.8836 98.9748 16.1176L99.0919 16.1176L98.2723 16.5857C102.487 18.692 105.063 21.5005 105.531 24.4259C105.414 25.1281 105.414 25.9472 105.297 26.6493L106.702 26.6493L106.819 26.6493C106.819 26.7663 107.054 26.7663 107.171 26.8833C107.405 27.0004 107.756 27.0004 107.99 27.0004C109.629 27.0004 111.503 27.0004 113.142 26.7663C113.376 26.7663 113.727 26.7663 114.079 26.7663C114.664 26.6493 115.366 26.6493 115.952 26.6493C116.069 26.6493 116.303 26.6493 116.537 26.6493L116.771 26.6493C117.591 26.6493 118.294 26.7663 118.762 26.8833C119.23 27.1174 119.581 27.4684 119.347 27.8195C118.996 28.5216 117.357 29.1067 115.601 29.1067C115.484 29.1067 115.601 29.2237 115.366 29.2237C115.132 29.2237 115.015 29.2237 114.781 29.2237C114.079 29.2237 113.61 29.1067 112.908 29.1067C112.556 29.1067 112.205 29.1067 111.971 28.9897C110.215 28.8727 108.576 28.8727 106.702 28.9897C106.234 28.9897 105.649 29.2237 105.297 29.3407L105.18 29.3407L103.892 29.4578C102.604 31.4471 100.497 33.3194 97.6869 35.1917C94.8769 36.947 91.4814 38.5852 87.6177 39.9894L88.2031 40.4575C87.9689 40.6916 87.8519 40.9256 88.086 41.1596C88.9056 41.7447 89.8423 42.3298 90.896 42.7979L91.0131 42.7979C91.1302 42.9149 91.2473 43.0319 91.4814 43.0319C91.9498 43.149 92.301 43.383 92.6523 43.5C92.8864 43.617 93.1206 43.617 93.0035 43.7341C92.8864 43.7341 93.0035 43.8511 93.1206 43.8511C93.8231 44.3191 93.706 45.0213 92.4181 45.7234C91.1302 46.0744 89.6081 46.0744 88.6714 45.7234C88.2031 45.6064 88.086 45.6064 88.086 45.4893ZM135.154 29.1067C136.559 28.0535 136.91 26.8833 136.324 25.9472L122.274 6.28802C121.923 5.81994 121.104 5.35186 120.284 5.00081C119.464 4.64975 118.528 4.2987 117.474 4.18168L68.416 0.0860164C66.0743 -0.148021 63.3814 0.0860164 60.9227 0.905148L13.9723 15.4155C11.6306 16.2346 9.99144 17.2878 9.40602 18.341L0.0393551 40.4575C-0.194812 41.5107 0.624772 42.6809 2.26394 43.383L36.9206 56.4891C38.5598 57.3082 41.2527 57.5423 44.1798 57.1912L97.1014 51.5743C99.7944 51.2233 102.253 50.5211 104.009 49.468L135.154 29.1067ZM65.0206 35.0747L57.8785 41.6277C62.0935 41.7447 66.7769 41.5107 71.226 40.8086C73.3335 40.5745 75.5581 40.1065 77.6656 39.5214L69.3527 34.7236C69.0014 34.6066 68.6502 34.4896 68.1819 34.4896C67.1281 34.2555 65.7231 34.4896 65.0206 35.0747ZM53.5464 33.3194L37.8573 36.1278C39.2623 37.181 41.0185 38.3512 43.126 39.1703C44.6481 39.7554 46.4044 40.2235 48.1606 40.5745C49.0973 40.6916 49.9169 40.9256 50.6194 41.1596L56.0052 34.7236C56.0052 34.4896 56.1223 34.2555 56.0052 34.0215C55.8881 33.4364 54.7173 33.2024 53.5464 33.3194Z" transform="translate(110.95564 43.913074)" id="Isometric-Kubernetes" fill="#FFBA5E" fill-rule="evenodd" stroke="none"/>
      </g>
      <g id="Lstio" transform="translate(0 38.52432)">
        <g id="Plane" transform="matrix(-1 0 0 1 253.9 0)">
          <path d="M0 37.446L177.967 104.147L252.9 76.0623L252.9 66.7008L74.9333 0L0 28.0845L0 37.446Z" id="Path" fill="#0D0D28" fill-rule="evenodd" stroke="none"/>
          <path d="M0.585417 9.36151L0.585417 0" transform="translate(74.347916 0)" id="Path" fill="none" fill-rule="evenodd" stroke="#574226" stroke-width="0.4"/>
          <path d="M250.558 66.7008L73.7625 0L0 28.0845" transform="translate(1.1708333 9.361508)" id="Path" fill="none" fill-rule="evenodd" stroke="#574226" stroke-width="0.4"/>
          <path d="M0 0C1.52208 1.52125 60.8833 23.7548 177.967 66.7008L252.9 38.6162" transform="translate(0 28.084526)" id="Path" fill="none" fill-rule="evenodd" stroke="#FFBF26" stroke-width="1"/>
          <path d="M0.585417 0L0.585417 9.36151" transform="translate(177.38126 94.78528)" id="Path" fill="none" fill-rule="evenodd" stroke="#FFBF26" stroke-width="1"/>
          <path d="M0 37.446L177.967 104.147L252.9 76.0623L252.9 66.7008L74.9333 0L0 28.0845L0 37.446Z" id="Path" fill="none" fill-rule="evenodd" stroke="#FFBF26" stroke-width="1"/>
        </g>
        <path d="M51.3996 22.4676L42.5013 29.9568L28.4513 31.127L51.3996 22.4676ZM13.2304 18.84L33.3688 26.4463L26.5779 30.4249L13.2304 18.84ZM0 12.7551L49.5262 21.7655L34.7737 25.9782L0 12.7551ZM36.8812 10.0636L54.2096 16.6167L51.1654 17.7869L33.8371 11.2338L36.8812 10.0636ZM53.6242 8.6594C54.4437 8.77641 55.1463 8.89343 55.9658 9.24449L53.39 10.1806C52.6875 9.9466 52.1021 9.82958 51.3996 9.82958C50.8142 9.82958 50.2288 9.9466 49.7604 10.1806C49.6433 10.2977 49.4092 10.2977 49.2921 10.4147C49.175 10.5317 49.0579 10.5317 48.9408 10.6487C48.9408 10.7657 48.8237 10.8828 48.9408 10.8828C48.9408 10.9998 49.175 11.1168 49.4092 11.2338C49.7604 11.3508 50.1117 11.4678 50.4629 11.4678C50.8142 11.4678 51.2825 11.4678 51.6338 11.3508C51.985 11.2338 52.4533 11.2338 52.9217 11.1168C53.39 10.9998 53.8583 10.8828 54.3267 10.7657C54.795 10.6487 55.3804 10.5317 55.8488 10.5317C56.3171 10.5317 56.9025 10.4147 57.4879 10.4147C58.0733 10.4147 58.6588 10.4147 59.2442 10.5317C59.8296 10.6487 60.415 10.7657 61.0004 10.9998C61.82 11.3508 62.4054 11.5849 62.6396 11.9359C62.9908 12.287 63.1079 12.521 62.9908 12.8721C62.8737 13.1061 62.6396 13.4572 62.2883 13.6912C61.9371 13.9252 61.3517 14.1593 60.8833 14.3933C60.2979 14.6274 59.7125 14.7444 59.01 14.9784C58.3075 15.0954 57.605 15.2125 56.7854 15.2125C55.9658 15.2125 55.2633 15.2125 54.3267 15.0954C53.5071 14.9784 52.6875 14.7444 51.7508 14.5103L54.3267 13.5742C54.795 13.6912 55.1463 13.8082 55.6146 13.9252C55.9658 13.9252 56.3171 14.0423 56.7854 14.0423C57.1367 14.0423 57.4879 14.0423 57.8392 13.9252C58.1904 13.8082 58.4246 13.8082 58.6588 13.6912C58.8929 13.5742 59.01 13.5742 59.1271 13.4572C59.2442 13.3401 59.3613 13.2231 59.4783 13.1061C59.5954 12.9891 59.4783 12.8721 59.4783 12.7551C59.3613 12.638 59.2442 12.521 58.8929 12.404C58.4246 12.17 57.7221 12.17 56.9025 12.287C56.0829 12.404 55.0292 12.638 53.8583 12.8721C53.39 12.9891 52.8046 13.1061 52.3363 13.1061C51.7508 13.2231 51.2825 13.2231 50.6971 13.2231C50.1117 13.2231 49.6433 13.2231 49.0579 13.1061C48.4725 12.9891 48.0042 12.8721 47.4188 12.638C46.5992 12.287 46.0138 12.0529 45.7796 11.7019C45.5454 11.3508 45.4283 11.1168 45.5454 10.8828C45.6625 10.6487 45.8967 10.2977 46.2479 10.1806C46.5992 9.9466 47.0675 9.71257 47.6529 9.47853C48.2383 9.24449 48.8237 9.12747 49.4092 9.01045C49.9946 8.89343 50.6971 8.77641 51.3996 8.77641C52.1021 8.54238 52.8046 8.54238 53.6242 8.6594ZM53.8583 4.44672L57.605 5.85094L59.5954 5.14883L61.9371 5.96796L59.9467 6.67008L66.1521 9.01045C66.7375 9.24449 67.2058 9.36151 67.5571 9.36151C67.9083 9.36151 68.2596 9.24449 68.7279 9.12747C68.845 9.01045 69.0792 9.01045 69.1963 8.89343C69.3133 8.77641 69.4304 8.77641 69.5475 8.6594L72.2404 9.71257C72.0062 9.82958 71.8892 9.9466 71.5379 10.0636C71.3037 10.1806 70.9525 10.2977 70.7183 10.4147C70.25 10.5317 69.8988 10.7657 69.4304 10.7657C68.9621 10.8828 68.4938 10.9998 68.0254 10.9998C67.5571 10.9998 66.9717 10.9998 66.3863 10.8828C65.8008 10.7657 65.2154 10.6487 64.63 10.4147L57.2537 7.60623L55.6146 8.19132L53.2729 7.37219L54.9121 6.78709L51.1654 5.38287L53.8583 4.44672ZM63.6933 3.51057L76.2213 8.30834L73.5283 9.36151L61.0004 4.56374L63.6933 3.51057ZM75.7529 0C76.8067 0 77.7433 0.234038 78.9142 0.351057C79.9679 0.585094 81.0217 0.819132 81.9583 1.28721C83.0121 1.63826 83.7146 2.10634 84.3 2.4574C84.8854 2.80845 85.2367 3.27653 85.3538 3.62758C85.4708 3.97864 85.3538 4.3297 85.1196 4.79777C84.7683 5.14883 84.1829 5.49989 83.4804 5.73392C82.6608 6.08498 81.8412 6.202 80.9046 6.31902C79.9679 6.43604 79.0313 6.43604 77.9775 6.43604C76.9238 6.43604 75.9871 6.202 74.8163 6.08498C73.7625 5.85094 72.7087 5.61691 71.7721 5.14883C70.7183 4.79777 70.0158 4.3297 69.4304 3.97864C68.845 3.62758 68.4938 3.15951 68.3767 2.80845C68.2596 2.4574 68.3767 2.10634 68.6108 1.63826C68.9621 1.28721 69.4304 0.936151 70.25 0.702113C71.0696 0.351057 71.8892 0.234038 72.8258 0.117019C73.7625 0 74.8163 0 75.7529 0ZM74.3479 1.52125C73.7625 1.52125 73.2942 1.63826 72.8258 1.8723C72.3575 1.98932 72.1233 2.22336 72.0062 2.4574C71.8892 2.69143 72.0062 2.92547 72.2404 3.04249C72.4746 3.27653 72.7088 3.51057 73.1771 3.62758C73.6454 3.86162 73.9967 4.09566 74.5821 4.21268C75.0504 4.44672 75.6358 4.56374 76.1042 4.68075C76.6896 4.79777 77.275 4.91479 77.7433 5.03181C78.3288 5.14883 78.7971 5.14883 79.3825 5.14883C79.9679 5.14883 80.4362 5.03181 80.9046 4.79777C81.3729 4.68075 81.6071 4.44672 81.7242 4.21268C81.8412 3.97864 81.7242 3.86162 81.6071 3.62758C81.3729 3.39355 81.1387 3.15951 80.6704 3.04249C80.3192 2.80845 79.8508 2.57441 79.2654 2.4574C78.7971 2.22336 78.2117 2.10634 77.7433 1.98932C77.1579 1.8723 76.5725 1.75528 76.1042 1.63826C75.5188 1.40423 74.9333 1.40423 74.3479 1.52125ZM58.8929 1.75528L61.7029 2.80845L59.01 3.86162L59.01 3.86162L56.2 2.80845L58.8929 1.75528Z" transform="translate(79.44583 34.520565)" id="Isometric-Istio" fill="#FFBA5E" fill-rule="evenodd" stroke="none"/>
      </g>
      <g id="Openstack" transform="translate(310.1 38.172726)">
        <g id="Plane">
          <path d="M0 37.446L177.967 104.147L252.9 76.0623L252.9 66.7008L74.9333 0L0 28.0845L0 37.446Z" id="Path" fill="#0D0D28" fill-rule="evenodd" stroke="none"/>
          <path d="M0.585417 9.36151L0.585417 0" transform="translate(74.347916 0)" id="Path" fill="none" fill-rule="evenodd" stroke="#574226" stroke-width="0.4"/>
          <path d="M250.558 66.7008L73.7625 0L0 28.0845" transform="translate(1.1708333 9.361508)" id="Path" fill="none" fill-rule="evenodd" stroke="#574226" stroke-width="0.4"/>
          <path d="M0 0C1.52208 1.52125 60.8833 23.7548 177.967 66.7008L252.9 38.6162" transform="translate(0 28.084526)" id="Path" fill="none" fill-rule="evenodd" stroke="#FFBF26" stroke-width="1"/>
          <path d="M0.585417 0L0.585417 9.36151" transform="translate(177.38126 94.78528)" id="Path" fill="none" fill-rule="evenodd" stroke="#FFBF26" stroke-width="1"/>
          <path d="M0 37.446L177.967 104.147L252.9 76.0623L252.9 66.7008L74.9333 0L0 28.0845L0 37.446Z" id="Path" fill="none" fill-rule="evenodd" stroke="#FFBF26" stroke-width="1"/>
        </g>
      </g>
      <g id="Prometheus" transform="translate(207.06667 0)">
        <g id="Plane">
          <path d="M0 37.446L74.9333 65.5306L149.867 37.446L149.867 28.0845L74.9333 0L0 28.0845L0 37.446Z" id="Path" fill="#0D0D28" fill-rule="evenodd" stroke="none"/>
          <path d="M0.585417 0L0.585417 9.36151" transform="translate(74.347916 56.169052)" id="Path" fill="none" fill-rule="evenodd" stroke="#FFBF26" stroke-width="1"/>
          <path d="M0.585417 9.36151L0.585417 0" transform="translate(74.347916 0)" id="Path" fill="none" fill-rule="evenodd" stroke="#574226" stroke-width="0.4"/>
          <path d="M149.867 28.0845L74.9333 0L0 28.0845" transform="translate(0 9.361508)" id="Path" fill="none" fill-rule="evenodd" stroke="#574226" stroke-width="0.4"/>
          <path d="M0 0L74.9333 28.0845L149.867 0" transform="translate(0 28.084526)" id="Path" fill="none" fill-rule="evenodd" stroke="#FFBF26" stroke-width="1"/>
          <path d="M0 37.446L74.9333 65.5306L149.867 37.446L149.867 28.0845L74.9333 0L0 28.0845L0 37.446Z" id="border" fill="none" fill-rule="evenodd" stroke="#FFBF26" stroke-width="1"/>
        </g>
        <path d="M23.8777 15.1563L11.3498 9.77338C11.3498 9.77338 11.3498 9.65637 11.4669 9.65637C12.4036 8.13512 13.2231 7.55003 14.1598 6.84791C14.1598 6.84791 15.2136 7.66704 16.0331 8.36916C16.0331 8.36916 16.3844 8.72021 17.0869 9.18829C17.6723 8.25214 18.8431 7.31599 20.5994 6.61388C24.4631 4.97561 29.849 4.39052 31.8394 2.98629C32.4248 3.33735 31.1369 4.50754 27.9756 5.91176C30.3173 5.56071 33.3615 4.50754 35.1177 3.80542C36.874 3.10331 39.8011 2.51822 40.6206 2.86927C38.1619 3.33735 37.6936 4.2735 34.7665 6.1458C33.7127 6.84791 31.3711 7.78406 30.2002 8.48618C33.2444 7.19897 38.0448 5.56071 40.9719 5.44369C38.5131 6.02878 36.7569 7.31599 36.0544 8.0181C35.0006 9.07127 33.9469 9.8904 31.3711 11.0606C29.6148 11.7627 27.3902 12.3478 25.2827 12.5818C26.4536 12.8159 27.2731 13.0499 27.2731 13.0499L30.9027 13.9861C30.7856 13.9861 27.8586 14.8052 23.8777 15.1563L23.8777 15.1563ZM18.9602 17.2626L6.31522 11.8797L9.59355 10.4755L22.2386 15.8584L18.9602 17.2626ZM6.66647 17.1456C4.55897 16.2094 4.91022 14.6882 7.36897 13.635L14.9794 16.9115C12.5206 17.8477 8.77397 17.9647 6.66647 17.1456L6.66647 17.1456ZM42.611 1.8161C35.2348 -1.34341 20.5994 -0.290237 9.9448 4.2735C-0.592699 8.72021 -3.16853 14.9222 4.20772 18.0817C11.584 21.2412 26.2194 20.1881 36.874 15.6243C47.4115 11.1776 49.9873 4.97561 42.611 1.8161L42.611 1.8161Z" transform="translate(51.52395 18.662199)" id="Isometric-Prometeus" fill="#FFBA5E" fill-rule="evenodd" stroke="none"/>
      </g>
    </g>
    <path d="M0 0L6 0L6 92L0 92L0 0Z" transform="translate(519.9294 26)" id="Rectangle" fill="none" fill-rule="evenodd" stroke="none"/>
    <path d="M23.8777 15.1563L11.3498 9.77338C11.3498 9.77338 11.3498 9.65637 11.4669 9.65637C12.4036 8.13512 13.2231 7.55003 14.1598 6.84791C14.1598 6.84791 15.2136 7.66704 16.0331 8.36916C16.0331 8.36916 16.3844 8.72021 17.0869 9.18829C17.6723 8.25214 18.8431 7.31599 20.5994 6.61388C24.4631 4.97561 29.849 4.39052 31.8394 2.98629C32.4248 3.33735 31.1369 4.50754 27.9756 5.91176C30.3173 5.56071 33.3615 4.50754 35.1177 3.80542C36.874 3.10331 39.8011 2.51822 40.6206 2.86927C38.1619 3.33735 37.6936 4.2735 34.7665 6.1458C33.7127 6.84791 31.3711 7.78406 30.2002 8.48618C33.2444 7.19897 38.0448 5.56071 40.9719 5.44369C38.5131 6.02878 36.7569 7.31599 36.0544 8.0181C35.0006 9.07127 33.9469 9.8904 31.3711 11.0606C29.6148 11.7627 27.3902 12.3478 25.2827 12.5818C26.4536 12.8159 27.2731 13.0499 27.2731 13.0499L30.9027 13.9861C30.7856 13.9861 27.8586 14.8052 23.8777 15.1563L23.8777 15.1563ZM18.9602 17.2626L6.31522 11.8797L9.59355 10.4755L22.2386 15.8584L18.9602 17.2626ZM6.66647 17.1456C4.55897 16.2094 4.91022 14.6882 7.36897 13.635L14.9794 16.9115C12.5206 17.8477 8.77397 17.9647 6.66647 17.1456L6.66647 17.1456ZM42.611 1.8161C35.2348 -1.34341 20.5994 -0.290237 9.9448 4.2735C-0.592699 8.72021 -3.16853 14.9222 4.20772 18.0817C11.584 21.2412 26.2194 20.1881 36.874 15.6243C47.4115 11.1776 49.9873 4.97561 42.611 1.8161L42.611 1.8161Z" transform="translate(405.92938 250)" id="Isometric-Prometeus" fill="#FFBA5E" fill-rule="evenodd" stroke="none"/>
    <g id="Connection" transform="translate(3.637979E-12 61)">
      <path d="M0 154.382L0 0L177.967 66.7819L355.933 0L355.933 154.382L177.967 221.164L0 154.382Z" transform="translate(103.03333 115.82466)" id="Plane-Shader" fill="url(#gradient_1)" fill-opacity="0.32" fill-rule="evenodd" stroke="none"/>
      <path d="M0 154.382L0 0L74.9333 28.0695L149.867 0L149.867 154.382L74.9333 182.451L0 154.382Z" transform="translate(206.06667 0.04060492)" id="Plane-Shader" fill="url(#gradient_2)" fill-opacity="0.32" fill-rule="evenodd" stroke="none"/>
      <path d="M75.017 220.153L253.402 153.455L251.896 0L74.2643 67.1994L0 38.1919L0 192.574L75.017 220.153Z" transform="translate(0 39.11607)" id="Plane-Shader" fill="url(#gradient_3)" fill-opacity="0.32" fill-rule="evenodd" stroke="none"/>
      <path d="M178.435 219.852L0 153.054L0.501786 0L179.137 67.1994L253.402 38.1919L253.402 192.574L178.435 219.852Z" transform="translate(308.5982 39.11607)" id="Plane-Shader" fill="url(#gradient_3)" fill-opacity="0.32" fill-rule="evenodd" stroke="none"/>
      <path d="M0 154.382L0 0L74.9333 28.0695L149.867 0L149.867 154.382L74.9333 182.451L0 154.382Z" transform="translate(206.06667 154.49893)" id="Cube-Shader" fill="url(#gradient_4)" fill-opacity="0.32" fill-rule="evenodd" stroke="none"/>
      <path d="M0 154.382L0 0L74.9333 28.0695L149.867 0L149.867 154.382L74.9333 182.451L0 154.382Z" transform="translate(206.06667 0.11695605)" id="Cube-Shader" fill="url(#gradient_4)" fill-opacity="0.32" fill-rule="evenodd" stroke="none"/>
      <path d="M0 154.382L0 0L74.9333 28.0695L149.867 0L149.867 154.382L74.9333 182.451L0 154.382Z" transform="translate(103.03333 38.712452)" id="Cube-Shader" fill="url(#gradient_4)" fill-opacity="0.32" fill-rule="evenodd" stroke="none"/>
      <path d="M0 154.382L0 0L74.9333 28.0695L149.867 0L149.867 154.382L74.9333 182.451L0 154.382Z" transform="translate(309.1 38.595497)" id="Cube-Shader" fill="url(#gradient_5)" fill-opacity="0.32" fill-rule="evenodd" stroke="none"/>
      <path d="M0 154.382L0 0L74.9333 28.0695L149.867 0L149.867 154.382L74.9333 182.451L0 154.382Z" transform="translate(103.03333 115.90344)" id="Cube-Shader" fill="url(#gradient_4)" fill-opacity="0.32" fill-rule="evenodd" stroke="none"/>
      <path d="M0 154.382L0 0L74.9333 28.0695L149.867 0L149.867 154.382L74.9333 182.451L0 154.382Z" transform="translate(309.1 115.78648)" id="Cube-Shader" fill="url(#gradient_5)" fill-opacity="0.32" fill-rule="evenodd" stroke="none"/>
      <path d="M0 154.382L0 0L74.9333 28.0695L149.867 0L149.867 154.382L74.9333 182.451L0 154.382Z" transform="translate(412.13333 77.190994)" id="Cube-Shader" fill="url(#gradient_5)" fill-opacity="0.32" fill-rule="evenodd" stroke="none"/>
      <path d="M0 154.382L0 0L74.9333 28.0695L149.867 0L149.867 154.382L74.9333 182.451L0 154.382Z" transform="translate(0 77.190994)" id="Cube-Shader" fill="url(#gradient_5)" fill-opacity="0.32" fill-rule="evenodd" stroke="none"/>
    </g>
    <g id="Cubes-Blue" transform="translate(1 0)">
      <g id="Cube" transform="translate(206.06535 0.21240543)">
        <path d="M0 28.1534L74.9329 0L149.866 28.1534L149.866 60.999L74.9329 89.1524L0 60.999L0 28.1534Z" id="Path" fill="#0D0D28" fill-opacity="0.92156863" fill-rule="evenodd" stroke="none"/>
        <path d="M0 28.1534L0 28.1534L74.9329 0L149.866 28.1534" transform="translate(0 32.845604)" id="Path" fill="none" fill-rule="evenodd" stroke="#005977" stroke-width="0.4"/>
        <path d="M0.585413 0L0.585413 32.8456" transform="translate(74.34744 0)" id="Path" fill="none" fill-rule="evenodd" stroke="#005977" stroke-width="0.4"/>
        <path d="M0 0L74.9329 28.1534L149.866 0" transform="translate(0 28.153374)" id="Path" fill="none" fill-rule="evenodd" stroke="#00ABE8" stroke-width="1"/>
        <path d="M0.585413 32.8456L0.585413 0" transform="translate(74.34744 56.306747)" id="Path" fill="#02022B" fill-rule="evenodd" stroke="#00ABE8" stroke-width="1"/>
        <path d="M0 28.1534L74.9329 0L149.866 28.1534L149.866 60.999L74.9329 89.1524L0 60.999L0 28.1534Z" id="Path" fill="none" fill-rule="evenodd" stroke="#00ABE8" stroke-width="1"/>
      </g>
      <g id="Cube" transform="translate(103.01595 38.808403)">
        <path d="M0 28.1534L74.9329 0L149.866 28.1534L149.866 60.999L74.9329 89.1524L0 60.999L0 28.1534Z" id="Path" fill="#0D0D28" fill-opacity="0.92156863" fill-rule="evenodd" stroke="none"/>
        <path d="M0 28.1534L0 28.1534L74.9329 0L149.866 28.1534" transform="translate(0 32.845604)" id="Path" fill="none" fill-rule="evenodd" stroke="#005977" stroke-width="0.4"/>
        <path d="M0.585413 0L0.585413 32.8456" transform="translate(74.34744 0)" id="Path" fill="none" fill-rule="evenodd" stroke="#005977" stroke-width="0.4"/>
        <path d="M0 0L74.9329 28.1534L149.866 0" transform="translate(0 28.153374)" id="Path" fill="none" fill-rule="evenodd" stroke="#00ABE8" stroke-width="1"/>
        <path d="M0.585413 32.8456L0.585413 0" transform="translate(74.34744 56.306747)" id="Path" fill="#02022B" fill-rule="evenodd" stroke="#00ABE8" stroke-width="1"/>
        <path d="M0 28.1534L74.9329 0L149.866 28.1534L149.866 60.999L74.9329 89.1524L0 60.999L0 28.1534Z" id="Path" fill="none" fill-rule="evenodd" stroke="#00ABE8" stroke-width="1"/>
      </g>
      <g id="Cube" transform="translate(309.09805 39.159836)">
        <path d="M0 28.1534L74.9329 0L149.866 28.1534L149.866 60.999L74.9329 89.1524L0 60.999L0 28.1534Z" id="Path" fill="#0D0D28" fill-opacity="0.92156863" fill-rule="evenodd" stroke="none"/>
        <path d="M0 28.1534L0 28.1534L74.9329 0L149.866 28.1534" transform="translate(0 32.845604)" id="Path" fill="none" fill-rule="evenodd" stroke="#005977" stroke-width="0.4"/>
        <path d="M0.585413 0L0.585413 32.8456" transform="translate(74.34744 0)" id="Path" fill="none" fill-rule="evenodd" stroke="#005977" stroke-width="0.4"/>
        <path d="M0 0L74.9329 28.1534L149.866 0" transform="translate(0 28.153374)" id="Path" fill="none" fill-rule="evenodd" stroke="#00ABE8" stroke-width="1"/>
        <path d="M0.585413 32.8456L0.585413 0" transform="translate(74.34744 56.306747)" id="Path" fill="#02022B" fill-rule="evenodd" stroke="#00ABE8" stroke-width="1"/>
        <path d="M0 28.1534L74.9329 0L149.866 28.1534L149.866 60.999L74.9329 89.1524L0 60.999L0 28.1534Z" id="Path" fill="none" fill-rule="evenodd" stroke="#00ABE8" stroke-width="1"/>
      </g>
      <g id="Cube" transform="translate(206.06535 77.52798)">
        <path d="M0 28.1534L74.9329 0L149.866 28.1534L149.866 60.999L74.9329 89.1524L0 60.999L0 28.1534Z" id="Path" fill="#0D0D28" fill-opacity="0.92156863" fill-rule="evenodd" stroke="none"/>
        <path d="M0 28.1534L0 28.1534L74.9329 0L149.866 28.1534" transform="translate(0 32.845604)" id="Path" fill="none" fill-rule="evenodd" stroke="#005977" stroke-width="0.4"/>
        <path d="M0.585413 0L0.585413 32.8456" transform="translate(74.34744 0)" id="Path" fill="none" fill-rule="evenodd" stroke="#005977" stroke-width="0.4"/>
        <path d="M0 0L74.9329 28.1534L149.866 0" transform="translate(0 28.153374)" id="Path" fill="none" fill-rule="evenodd" stroke="#00ABE8" stroke-width="1"/>
        <path d="M0.585413 32.8456L0.585413 0" transform="translate(74.34744 56.306747)" id="Path" fill="#02022B" fill-rule="evenodd" stroke="#00ABE8" stroke-width="1"/>
        <path d="M0 28.1534L74.9329 0L149.866 28.1534L149.866 60.999L74.9329 89.1524L0 60.999L0 28.1534Z" id="Path" fill="none" fill-rule="evenodd" stroke="#00ABE8" stroke-width="1"/>
      </g>
      <g id="Cube" transform="translate(0 77.421776)">
        <path d="M0 28.1534L74.9329 0L149.866 28.1534L149.866 60.999L74.9329 89.1524L0 60.999L0 28.1534Z" id="Path" fill="#0D0D28" fill-opacity="0.92156863" fill-rule="evenodd" stroke="none"/>
        <path d="M0 28.1534L0 28.1534L74.9329 0L149.866 28.1534" transform="translate(0 32.845604)" id="Path" fill="none" fill-rule="evenodd" stroke="#005977" stroke-width="0.4"/>
        <path d="M0.585413 0L0.585413 32.8456" transform="translate(74.34744 0)" id="Path" fill="none" fill-rule="evenodd" stroke="#005977" stroke-width="0.4"/>
        <path d="M0 0L74.9329 28.1534L149.866 0" transform="translate(0 28.153374)" id="Path" fill="none" fill-rule="evenodd" stroke="#00ABE8" stroke-width="1"/>
        <path d="M0.585413 32.8456L0.585413 0" transform="translate(74.34744 56.306747)" id="Path" fill="#02022B" fill-rule="evenodd" stroke="#00ABE8" stroke-width="1"/>
        <path d="M0 28.1534L74.9329 0L149.866 28.1534L149.866 60.999L74.9329 89.1524L0 60.999L0 28.1534Z" id="Path" fill="none" fill-rule="evenodd" stroke="#00ABE8" stroke-width="1"/>
      </g>
      <g id="Cube" transform="translate(412.1307 77.421776)">
        <path d="M0 28.1534L74.9329 0L149.866 28.1534L149.866 60.999L74.9329 89.1524L0 60.999L0 28.1534Z" id="Path" fill="#0D0D28" fill-opacity="0.92156863" fill-rule="evenodd" stroke="none"/>
        <path d="M0 28.1534L0 28.1534L74.9329 0L149.866 28.1534" transform="translate(0 32.845604)" id="Path" fill="none" fill-rule="evenodd" stroke="#005977" stroke-width="0.4"/>
        <path d="M0.585413 0L0.585413 32.8456" transform="translate(74.34744 0)" id="Path" fill="none" fill-rule="evenodd" stroke="#005977" stroke-width="0.4"/>
        <path d="M0 0L74.9329 28.1534L149.866 0" transform="translate(0 28.153374)" id="Path" fill="none" fill-rule="evenodd" stroke="#00ABE8" stroke-width="1"/>
        <path d="M0.585413 32.8456L0.585413 0" transform="translate(74.34744 56.306747)" id="Path" fill="#02022B" fill-rule="evenodd" stroke="#00ABE8" stroke-width="1"/>
        <path d="M0 28.1534L74.9329 0L149.866 28.1534L149.866 60.999L74.9329 89.1524L0 60.999L0 28.1534Z" id="Path" fill="none" fill-rule="evenodd" stroke="#00ABE8" stroke-width="1"/>
      </g>
      <g id="Cube" transform="translate(103.01595 116.12398)">
        <path d="M0 28.1534L74.9329 0L149.866 28.1534L149.866 60.999L74.9329 89.1524L0 60.999L0 28.1534Z" id="Path" fill="#0D0D28" fill-opacity="0.92156863" fill-rule="evenodd" stroke="none"/>
        <path d="M0 28.1534L0 28.1534L74.9329 0L149.866 28.1534" transform="translate(0 32.845604)" id="Path" fill="none" fill-rule="evenodd" stroke="#005977" stroke-width="0.4"/>
        <path d="M0.585413 0L0.585413 32.8456" transform="translate(74.34744 0)" id="Path" fill="none" fill-rule="evenodd" stroke="#005977" stroke-width="0.4"/>
        <path d="M0 0L74.9329 28.1534L149.866 0" transform="translate(0 28.153374)" id="Path" fill="none" fill-rule="evenodd" stroke="#00ABE8" stroke-width="1"/>
        <path d="M0.585413 32.8456L0.585413 0" transform="translate(74.34744 56.306747)" id="Path" fill="#02022B" fill-rule="evenodd" stroke="#00ABE8" stroke-width="1"/>
        <path d="M0 28.1534L74.9329 0L149.866 28.1534L149.866 60.999L74.9329 89.1524L0 60.999L0 28.1534Z" id="Path" fill="none" fill-rule="evenodd" stroke="#00ABE8" stroke-width="1"/>
      </g>
      <g id="Cube" transform="translate(309.09805 116.47541)">
        <path d="M0 28.1534L74.9329 0L149.866 28.1534L149.866 60.999L74.9329 89.1524L0 60.999L0 28.1534Z" id="Path" fill="#0D0D28" fill-opacity="0.92156863" fill-rule="evenodd" stroke="none"/>
        <path d="M0 28.1534L0 28.1534L74.9329 0L149.866 28.1534" transform="translate(0 32.845604)" id="Path" fill="none" fill-rule="evenodd" stroke="#005977" stroke-width="0.4"/>
        <path d="M0.585413 0L0.585413 32.8456" transform="translate(74.34744 0)" id="Path" fill="none" fill-rule="evenodd" stroke="#005977" stroke-width="0.4"/>
        <path d="M0 0L74.9329 28.1534L149.866 0" transform="translate(0 28.153374)" id="Path" fill="none" fill-rule="evenodd" stroke="#00ABE8" stroke-width="1"/>
        <path d="M0.585413 32.8456L0.585413 0" transform="translate(74.34744 56.306747)" id="Path" fill="#02022B" fill-rule="evenodd" stroke="#00ABE8" stroke-width="1"/>
        <path d="M0 28.1534L74.9329 0L149.866 28.1534L149.866 60.999L74.9329 89.1524L0 60.999L0 28.1534Z" id="Path" fill="none" fill-rule="evenodd" stroke="#00ABE8" stroke-width="1"/>
      </g>
      <g id="Cube" transform="translate(206.06535 154.84355)">
        <path d="M0 28.1534L74.9329 0L149.866 28.1534L149.866 60.999L74.9329 89.1524L0 60.999L0 28.1534Z" id="Path" fill="#0D0D28" fill-opacity="0.92156863" fill-rule="evenodd" stroke="none"/>
        <path d="M0 28.1534L0 28.1534L74.9329 0L149.866 28.1534" transform="translate(0 32.845604)" id="Path" fill="none" fill-rule="evenodd" stroke="#005977" stroke-width="0.4"/>
        <path d="M0.585413 0L0.585413 32.8456" transform="translate(74.34744 0)" id="Path" fill="none" fill-rule="evenodd" stroke="#005977" stroke-width="0.4"/>
        <path d="M0 0L74.9329 28.1534L149.866 0" transform="translate(0 28.153374)" id="Path" fill="none" fill-rule="evenodd" stroke="#00ABE8" stroke-width="1"/>
        <path d="M0.585413 32.8456L0.585413 0" transform="translate(74.34744 56.306747)" id="Path" fill="#02022B" fill-rule="evenodd" stroke="#00ABE8" stroke-width="1"/>
        <path d="M0 28.1534L74.9329 0L149.866 28.1534L149.866 60.999L74.9329 89.1524L0 60.999L0 28.1534Z" id="Path" fill="none" fill-rule="evenodd" stroke="#00ABE8" stroke-width="1"/>
      </g>
    </g>
  </g>
</svg>